<?xml version="1.0" encoding="UTF-8"?>
<svg version="1.1" xmlns="http://www.w3.org/2000/svg" width="368" height="307">
    <path d="M0 0 C0.99 0.99 0.99 0.99 2 2 C1.95875 2.7425 1.9175 3.485 1.875 4.25 C2.04639335 8.02065369 3.84944688 9.97578468 6 13 C6 13.66 6 14.32 6 15 C6.99 14.67 7.98 14.34 9 14 C8.835 14.825 8.67 15.65 8.5 16.5 C8.11129836 19.22091148 8.01239166 21.3650183 8.125 24.0625 C7.99375507 28.19671534 7.34726013 29.71383581 5 33 C3.7922442 36.62326739 4.45688872 37.64146369 6 41 C7.2065625 40.95359375 8.413125 40.9071875 9.65625 40.859375 C11.27080836 40.82182713 12.88539378 40.78543023 14.5 40.75 C15.29148438 40.71648437 16.08296875 40.68296875 16.8984375 40.6484375 C23.83842804 40.53466716 28.88511164 42.28794784 34.14453125 46.8671875 C34.69496094 47.52976563 35.24539062 48.19234375 35.8125 48.875 C36.8025 50.05449219 36.8025 50.05449219 37.8125 51.2578125 C40.80068373 55.00371425 43.77035134 58.76346229 46.70874023 62.54858398 C49.99473132 66.77067071 53.39362438 70.87550053 56.875 74.9375 C60.48396846 79.1500656 63.89662735 83.39844746 67 88 C66.01 89.98 66.01 89.98 65 92 C64.34 92 63.68 92 63 92 C63.495 92.78375 63.99 93.5675 64.5 94.375 C66.9097262 100.19850499 66.66335339 105.59534396 65 111.625 C64.67 112.40875 64.34 113.1925 64 114 C64.72445312 113.79503906 65.44890625 113.59007812 66.1953125 113.37890625 C67.16210938 113.10949219 68.12890625 112.84007812 69.125 112.5625 C70.07632813 112.29566406 71.02765625 112.02882813 72.0078125 111.75390625 C93.42963259 106.35650249 118.66782824 109.62330254 139 118 C140.5660348 119.5660348 140.20784495 121.07198911 140.25 123.25 C140.18354556 130.93656389 138.7649383 139.22311105 135 146 C135.804375 146.185625 136.60875 146.37125 137.4375 146.5625 C146.9754719 150.41115533 153.91730304 158.36072603 159.22265625 166.98828125 C160.2286273 169.59167367 160.44853198 171.23117761 160 174 C158.09375 176.1328125 158.09375 176.1328125 155.5 178.125 C154.6646875 178.78757812 153.829375 179.45015625 152.96875 180.1328125 C146.1532457 184.419406 140.23135849 185.44032823 132.35546875 185.44140625 C131.01806389 185.46121803 131.01806389 185.46121803 129.65364075 185.48143005 C126.83156081 185.52202495 124.00980435 185.54392745 121.1875 185.5625 C118.3474396 185.58630543 115.50768277 185.61438561 112.6678009 185.65428162 C110.90723791 185.67860323 109.14651345 185.69349059 107.38578796 185.69789124 C102.39670678 185.7531117 102.39670678 185.7531117 98 188 C89.15749809 189.79464345 79.60485836 189.11815961 70.61853409 189.07516479 C67.89427156 189.06225819 65.1700584 189.05585038 62.44577026 189.05102539 C56.67215774 189.03967707 50.89858666 189.02040773 45.125 189 C38.40905933 188.97635575 31.69314155 188.95600492 24.97716904 188.94406128 C22.29774602 188.93759635 19.6183948 188.92509533 16.93899536 188.91235352 C15.29673321 188.90872114 13.65447041 188.90536939 12.01220703 188.90234375 C10.9009269 188.89459427 10.9009269 188.89459427 9.76719666 188.88668823 C6.03289712 188.88630635 2.64633581 189.23704313 -1 190 C-1.33 189.67 -1.66 189.34 -2 189 C-4.32584616 188.88045537 -6.62337949 188.82459948 -8.95068359 188.81054688 C-9.67752853 188.80225357 -10.40437347 188.79396027 -11.15324402 188.78541565 C-12.73671634 188.76797728 -14.32021501 188.75282093 -15.90372849 188.73963928 C-18.40827022 188.71866767 -20.91268018 188.6916392 -23.41714478 188.66296387 C-28.7363795 188.60316354 -34.05567533 188.55107949 -39.375 188.5 C-45.53027916 188.44080796 -51.68549391 188.37848974 -57.84065628 188.30812073 C-60.31069133 188.28152187 -62.7807327 188.26071901 -65.25082397 188.2401123 C-66.76406155 188.22350819 -68.27729623 188.20663625 -69.79052734 188.18945312 C-70.47947586 188.18526871 -71.16842438 188.18108429 -71.87825012 188.17677307 C-74.8614116 188.13749756 -77.14441593 187.95186136 -80 187 C-81.75066763 186.8307517 -83.50569474 186.70477535 -85.26171875 186.60546875 C-86.29876953 186.53650391 -87.33582031 186.46753906 -88.40429688 186.39648438 C-90.5729287 186.25844535 -92.74223918 186.13064247 -94.91210938 186.01367188 C-102.60675369 185.47661517 -108.32747761 184.16067258 -114.2421875 179.0703125 C-119.46606431 172.84665065 -121.53456833 167.84328984 -121.30078125 159.6484375 C-120.32234797 151.03314183 -116.60536163 145.93000785 -110.0234375 140.49609375 C-108 139 -108 139 -106 138 C-106.13277344 137.2265625 -106.26554687 136.453125 -106.40234375 135.65625 C-106.57894531 134.6146875 -106.75554687 133.573125 -106.9375 132.5 C-107.11152344 131.4790625 -107.28554687 130.458125 -107.46484375 129.40625 C-109.76635386 114.75722216 -112.24208197 95.94831814 -104 82.8125 C-99.42690445 78.66813215 -92.89012195 79.52193067 -87.06152344 79.80322266 C-79.23665329 80.55012523 -71.19975979 82.9321561 -64 86 C-62.24126621 79.54612715 -61.87328519 73.78067361 -62.125 67.125 C-62.29814038 55.90694653 -60.56183457 47.62217677 -52.6171875 39.2578125 C-48.80419335 35.96839367 -44.66218978 33.24768403 -40.36791992 30.62475586 C-33.67626034 26.4675656 -30.02532545 22.0766095 -27.5 14.4375 C-24.26315789 5.75328947 -24.26315789 5.75328947 -20 3 C-13.39198672 0.30623205 -7.01966339 -2.18389528 0 0 Z " fill="#E09370" transform="translate(130,105)"/>
    <path d="M0 0 C1.03540381 -0.00233999 1.03540381 -0.00233999 2.09172487 -0.00472724 C4.42180755 -0.00873942 6.75182593 -0.00554678 9.08190918 -0.00241089 C10.74543801 -0.00376483 12.40896655 -0.00554473 14.07249451 -0.00772095 C18.6033571 -0.01229609 23.13419703 -0.01050539 27.66506004 -0.00734186 C32.39584796 -0.00481868 37.12663388 -0.00715568 41.85742188 -0.00872803 C49.80351105 -0.01054985 57.74959094 -0.0081431 65.69567871 -0.00338745 C74.89618629 0.00205519 84.09667171 0.00029254 93.29717875 -0.00521386 C101.18165226 -0.00974464 109.06611908 -0.01039571 116.95059347 -0.00777519 C121.66616778 -0.00621222 126.38173165 -0.00601918 131.0973053 -0.00931168 C135.52952174 -0.01218989 139.96170948 -0.01021562 144.39392281 -0.00441742 C146.02541112 -0.00308955 147.65690183 -0.00348439 149.28838921 -0.00568008 C151.50601334 -0.00839056 153.72354402 -0.00501176 155.94116211 0 C157.18520561 0.00037703 158.42924911 0.00075405 159.71099091 0.0011425 C162.47058105 0.12698364 162.47058105 0.12698364 163.47058105 1.12698364 C163.56677546 2.82257067 163.59245765 4.52219204 163.59083557 6.22050476 C163.59289757 7.87594803 163.59289757 7.87594803 163.59500122 9.56483459 C163.59140594 10.78618607 163.58781067 12.00753754 163.58410645 13.26589966 C163.58425247 14.54376343 163.5843985 15.8216272 163.58454895 17.13821411 C163.58483691 20.65251955 163.57894046 24.16679114 163.57197499 27.68108869 C163.56574117 31.3499772 163.56513763 35.01886641 163.56394958 38.6877594 C163.56083635 45.639888 163.55262307 52.59200094 163.5426001 59.54412264 C163.53143871 67.45693144 163.52592844 75.36974098 163.52090466 83.2825557 C163.51044045 99.56404085 163.49284117 115.84551025 163.47058105 132.12698364 C141.32260677 132.15031037 119.17463449 132.1679617 97.02665043 132.17879581 C86.74371493 132.18395925 76.46078705 132.19100286 66.17785645 132.2024231 C57.21866156 132.21236847 48.25947218 132.21883672 39.30027193 132.22107214 C34.55338034 132.22237949 29.80650454 132.22546691 25.059618 132.2327137 C20.59705079 132.23947161 16.13450596 132.24160107 11.67193413 132.24009132 C10.02915704 132.24036776 8.38637925 132.24237423 6.74360657 132.24618912 C4.51060735 132.2511228 2.27769396 132.24998315 0.04469299 132.24723816 C-1.20802367 132.24815995 -2.46074034 132.24908175 -3.75141811 132.25003147 C-6.52941895 132.12698364 -6.52941895 132.12698364 -7.52941895 131.12698364 C-7.61573769 129.78430951 -7.63648368 128.43724042 -7.6270752 127.09182739 C-7.62385254 126.28294067 -7.62062988 125.47405396 -7.61730957 124.64065552 C-7.60893066 123.7905188 -7.60055176 122.94038208 -7.59191895 122.06448364 C-7.58740723 121.21047974 -7.58289551 120.35647583 -7.57824707 119.47659302 C-7.56642268 117.36002701 -7.54848663 115.24349679 -7.52941895 113.12698364 C-8.62383301 113.62842896 -9.71824707 114.12987427 -10.8458252 114.64651489 C-14.5518541 116.13600053 -15.84608793 116.35476065 -19.52941895 115.12698364 C-18.52941895 112.12698364 -18.52941895 112.12698364 -17.52941895 111.12698364 C-20.16941895 111.45698364 -22.80941895 111.78698364 -25.52941895 112.12698364 C-27.52941895 109.12698364 -27.52941895 109.12698364 -27.52941895 105.12698364 C-24.88941895 104.79698364 -22.24941895 104.46698364 -19.52941895 104.12698364 C-19.52941895 103.13698364 -19.52941895 102.14698364 -19.52941895 101.12698364 C-21.17941895 101.12698364 -22.82941895 101.12698364 -24.52941895 101.12698364 C-24.52941895 99.80698364 -24.52941895 98.48698364 -24.52941895 97.12698364 C-18.91941895 97.12698364 -13.30941895 97.12698364 -7.52941895 97.12698364 C-7.52941895 91.84698364 -7.52941895 86.56698364 -7.52941895 81.12698364 C-12.33104105 81.20587794 -12.33104105 81.20587794 -17.13220215 81.30715942 C-20.84389765 81.33797838 -22.36475558 81.23675922 -25.52941895 79.12698364 C-25.82119164 76.38412895 -25.92547692 73.87040826 -25.8927002 71.12698364 C-25.8931987 70.33549927 -25.8936972 69.54401489 -25.89421082 68.72854614 C-25.89186884 67.05404146 -25.88213296 65.37953335 -25.86560059 63.70510864 C-25.8420117 61.13708124 -25.84503782 58.57009178 -25.85168457 56.00198364 C-25.84610782 54.37697743 -25.83899796 52.75197561 -25.8302002 51.12698364 C-25.8311116 50.35612427 -25.83202301 49.58526489 -25.83296204 48.79104614 C-25.76044442 43.35800911 -25.76044442 43.35800911 -23.52941895 41.12698364 C-20.78456302 40.98190669 -18.14461352 40.94045941 -15.40441895 41.00198364 C-14.65031738 41.01100708 -13.89621582 41.02003052 -13.1192627 41.02932739 C-11.2558464 41.05291494 -9.39259302 41.08878645 -7.52941895 41.12698364 C-7.53727417 39.31726074 -7.53727417 39.31726074 -7.54528809 37.47097778 C-7.56333505 33.01134986 -7.57484983 28.55172519 -7.58435059 24.09207153 C-7.5893915 22.15879779 -7.59622413 20.22552788 -7.6048584 18.29226685 C-7.61693459 15.51971493 -7.62264951 12.74721323 -7.6270752 9.97463989 C-7.63223648 9.10485001 -7.63739777 8.23506012 -7.64271545 7.33891296 C-7.6429108 5.2679255 -7.59150062 3.1970404 -7.52941895 1.12698364 C-5.6591532 -0.74328211 -2.49181129 0.00075518 0 0 Z " fill="#F0698B" transform="translate(194.5294189453125,21.873016357421875)"/>
    <path d="M0 0 C55.77 0 111.54 0 169 0 C169.020625 19.614375 169.04125 39.22875 169.0625 59.4375 C169.071604 65.64103271 169.08070801 71.84456543 169.09008789 78.23608398 C169.09460449 85.78527832 169.09460449 85.78527832 169.09544373 89.31434631 C169.09698383 91.79013753 169.10051009 94.26592797 169.10557556 96.74171448 C169.11284867 100.4820385 169.11390757 104.2223165 169.11352539 107.96264648 C169.1171235 109.0738835 169.12072161 110.18512053 169.12442875 111.33003139 C169.12305125 112.33059598 169.12167376 113.33116056 169.12025452 114.36204529 C169.12163721 115.67698298 169.12163721 115.67698298 169.12304783 117.01848507 C169 119 169 119 168 120 C166.00035018 120.08758003 163.9976389 120.10696576 161.99609375 120.09765625 C160.17368164 120.09282227 160.17368164 120.09282227 158.31445312 120.08789062 C157.03505859 120.07951172 155.75566406 120.07113281 154.4375 120.0625 C153.15423828 120.05798828 151.87097656 120.05347656 150.54882812 120.04882812 C147.3658658 120.03699555 144.18292726 120.01905944 141 120 C141 111.42 141 102.84 141 94 C139.35 94 137.7 94 136 94 C136 87.07 136 80.14 136 73 C145.1875 71.3125 145.1875 71.3125 148.05541992 70.81762695 C153.44980882 69.75203331 156.47197878 68.48956608 160 64 C161.53214888 60.93570224 161.22938548 58.3834358 161 55 C159.45910839 51.2378986 158.28897794 50.14532224 154.61328125 48.296875 C153.18610798 47.76373653 151.75185105 47.2493283 150.3125 46.75 C148.69782102 46.16041812 147.08324326 45.57055901 145.46875 44.98046875 C144.59605469 44.66770996 143.72335937 44.35495117 142.82421875 44.03271484 C139.77065047 42.91613515 136.7450448 41.73922089 133.71875 40.55078125 C131.58339888 39.72118544 129.44798289 38.89175656 127.3125 38.0625 C126.29776611 37.66063477 125.28303223 37.25876953 124.23754883 36.84472656 C115.28650598 33.42474212 109.22947926 33.60851773 100.25 36.5625 C92.3982859 39.13276197 92.3982859 39.13276197 89 38 C87.83825081 31.87441335 88.13611966 29.60843234 91 24 C90.93134338 20.01791585 90.65834682 17.83995974 88.1875 14.6875 C84.81797716 12.08815381 83.14979926 10.91390392 78.765625 11.2421875 C77.02539062 11.55542969 77.02539062 11.55542969 75.25 11.875 C74.07953125 12.07867187 72.9090625 12.28234375 71.703125 12.4921875 C70.36507812 12.74355469 70.36507812 12.74355469 69 13 C69.495 14.485 69.495 14.485 70 16 C68.68 17.32 67.36 18.64 66 20 C67.485 20.495 67.485 20.495 69 21 C69.16435547 22.01320313 69.16435547 22.01320313 69.33203125 23.046875 C69.49058594 23.93890625 69.64914062 24.8309375 69.8125 25.75 C70.03873047 27.07257812 70.03873047 27.07257812 70.26953125 28.421875 C71.07089917 31.25023238 71.98568029 32.86946954 74 35 C77.10197397 35.80946422 77.10197397 35.80946422 80 36 C80.495 38.97 80.495 38.97 81 42 C75.29724212 44.34539312 69.59845988 46.53580963 63.71484375 48.38671875 C61.9926952 48.86473976 61.9926952 48.86473976 61 50 C59.65732587 50.08631874 58.31025678 50.10706473 56.96484375 50.09765625 C56.15595703 50.09443359 55.34707031 50.09121094 54.51367188 50.08789062 C53.66353516 50.07951172 52.81339844 50.07113281 51.9375 50.0625 C51.08349609 50.05798828 50.22949219 50.05347656 49.34960938 50.04882812 C47.23304337 50.03700373 45.11651315 50.01906769 43 50 C43.01160156 51.28777344 43.02320313 52.57554688 43.03515625 53.90234375 C43.0445327 55.58072772 43.05363305 57.25911326 43.0625 58.9375 C43.07087891 59.78763672 43.07925781 60.63777344 43.08789062 61.51367188 C43.09111328 62.32255859 43.09433594 63.13144531 43.09765625 63.96484375 C43.10289307 64.7137085 43.10812988 65.46257324 43.11352539 66.23413086 C43 68 43 68 42 69 C39.32941149 69.14115161 36.67567762 69.04247107 34 69 C34.01160156 69.99902344 34.02320313 70.99804688 34.03515625 72.02734375 C34.04417969 73.31769531 34.05320313 74.60804687 34.0625 75.9375 C34.07410156 77.22527344 34.08570313 78.51304688 34.09765625 79.83984375 C34 83 34 83 33 84 C31.668108 84.13237003 30.32995352 84.20319626 28.9921875 84.24609375 C28.16976562 84.27896484 27.34734375 84.31183594 26.5 84.34570312 C24.77354256 84.40607775 23.04697722 84.46345484 21.3203125 84.51757812 C17.43723457 84.67736316 14.14283263 84.95912457 10.3828125 86.03515625 C7 87 7 87 -1 87 C-1 81.39 -1 75.78 -1 70 C-5.8016221 70.07889429 -5.8016221 70.07889429 -10.6027832 70.18017578 C-14.31447871 70.21099473 -15.83533664 70.10977558 -19 68 C-19.2917727 65.25714531 -19.39605798 62.74342461 -19.36328125 60 C-19.36377975 59.20851562 -19.36427826 58.41703125 -19.36479187 57.6015625 C-19.36244989 55.92705781 -19.35271402 54.25254971 -19.33618164 52.578125 C-19.31259275 50.0100976 -19.31561887 47.44310814 -19.32226562 44.875 C-19.31668888 43.24999379 -19.30957902 41.62499196 -19.30078125 40 C-19.30169266 39.22914062 -19.30260406 38.45828125 -19.30354309 37.6640625 C-19.23102547 32.23102547 -19.23102547 32.23102547 -17 30 C-14.08274582 29.85442843 -11.28685195 29.81401033 -8.375 29.875 C-4.229375 29.936875 -4.229375 29.936875 0 30 C0 20.1 0 10.2 0 0 Z " fill="#FEFEFD" transform="translate(188,33)"/>
    <path d="M0 0 C0.99 0.99 0.99 0.99 2 2 C1.95875 2.7425 1.9175 3.485 1.875 4.25 C2.04639335 8.02065369 3.84944688 9.97578468 6 13 C6 13.66 6 14.32 6 15 C6.99 14.67 7.98 14.34 9 14 C8.835 14.825 8.67 15.65 8.5 16.5 C8.11129836 19.22091148 8.01239166 21.3650183 8.125 24.0625 C7.99375507 28.19671534 7.34726013 29.71383581 5 33 C3.7922442 36.62326739 4.45688872 37.64146369 6 41 C7.2065625 40.95359375 8.413125 40.9071875 9.65625 40.859375 C11.27080836 40.82182713 12.88539378 40.78543023 14.5 40.75 C15.29148437 40.71648437 16.08296875 40.68296875 16.8984375 40.6484375 C23.83842804 40.53466716 28.88511164 42.28794784 34.14453125 46.8671875 C34.69496094 47.52976563 35.24539062 48.19234375 35.8125 48.875 C36.8025 50.05449219 36.8025 50.05449219 37.8125 51.2578125 C40.80068373 55.00371425 43.77035134 58.76346229 46.70874023 62.54858398 C49.99473132 66.77067071 53.39362438 70.87550053 56.875 74.9375 C60.48396846 79.1500656 63.89662735 83.39844746 67 88 C66.31489569 90.33772235 65.46671112 91.69609843 63.41552734 93.03173828 C61.3616376 94.09677573 59.28766389 95.09189888 57.1875 96.0625 C55.76346308 96.73907863 54.34026562 97.41742731 52.91796875 98.09765625 C52.2429834 98.41750488 51.56799805 98.73735352 50.87255859 99.06689453 C49.24312757 99.87884829 47.67101149 100.8038672 46.11328125 101.74609375 C44 103 44 103 42 103 C41.71216559 99.29013428 41.54748043 95.70001295 42 92 C44.5 89.3125 44.5 89.3125 47 88 C44.03 88.99 44.03 88.99 41 90 C40.96132813 88.06447266 40.96132813 88.06447266 40.921875 86.08984375 C40.86556417 84.37236339 40.80821752 82.65491678 40.75 80.9375 C40.73582031 80.08994141 40.72164062 79.24238281 40.70703125 78.36914062 C40.43371381 71.29021892 38.83943549 66.69382342 33.5625 61.6875 C28.64307137 58.44787627 24.93425385 57.47945142 19 58 C13.85341745 59.85276972 11.17266495 62.59352091 8 67 C6.2548968 70.71965952 5.56706546 74.1396764 5.0703125 78.20703125 C4.91667236 79.42269775 4.76303223 80.63836426 4.60473633 81.89086914 C4.44642334 83.18500732 4.28811035 84.47914551 4.125 85.8125 C3.78293297 88.51635833 3.43391668 91.21927807 3.08203125 93.921875 C2.993806 94.60049088 2.90558075 95.27910675 2.81468201 95.97828674 C1.26953934 107.702616 -0.64757104 119.40964019 -3 131 C-11.42874146 129.54420484 -19.77622937 127.79428827 -28.125 125.9375 C-29.96964844 125.5343457 -29.96964844 125.5343457 -31.8515625 125.12304688 C-33.59953125 124.73536133 -33.59953125 124.73536133 -35.3828125 124.33984375 C-36.43871582 124.10644287 -37.49461914 123.87304199 -38.58251953 123.63256836 C-41 123 -41 123 -42 122 C-43.48638992 121.84344973 -44.97949127 121.74933057 -46.47265625 121.68359375 C-47.37177734 121.64169922 -48.27089844 121.59980469 -49.19726562 121.55664062 C-50.14279297 121.51732422 -51.08832031 121.47800781 -52.0625 121.4375 C-53.01189453 121.39431641 -53.96128906 121.35113281 -54.93945312 121.30664062 C-57.29278176 121.20020868 -59.64637099 121.09956846 -62 121 C-62 123.97 -62 126.94 -62 130 C-63.20914063 130.03738281 -64.41828125 130.07476562 -65.6640625 130.11328125 C-78.86522277 130.60722523 -91.23065047 131.4363243 -103 138 C-103.66 138 -104.32 138 -105 138 C-105.48539869 136.16830682 -105.96297186 134.33453941 -106.4375 132.5 C-106.83775391 130.96859375 -106.83775391 130.96859375 -107.24609375 129.40625 C-110.38742524 115.21329116 -111.98462966 95.53800352 -104 82.8125 C-99.42690445 78.66813215 -92.89012195 79.52193067 -87.06152344 79.80322266 C-79.23665329 80.55012523 -71.19975979 82.9321561 -64 86 C-62.24126621 79.54612715 -61.87328519 73.78067361 -62.125 67.125 C-62.29814038 55.90694653 -60.56183457 47.62217677 -52.6171875 39.2578125 C-48.80419335 35.96839367 -44.66218978 33.24768403 -40.36791992 30.62475586 C-33.67626034 26.4675656 -30.02532545 22.0766095 -27.5 14.4375 C-24.26315789 5.75328947 -24.26315789 5.75328947 -20 3 C-13.39198672 0.30623205 -7.01966339 -2.18389528 0 0 Z " fill="#F1E8D7" transform="translate(130,105)"/>
    <path d="M0 0 C1.61068359 0.26103516 1.61068359 0.26103516 3.25390625 0.52734375 C11.11573898 1.86573898 11.11573898 1.86573898 13.375 4.125 C6.89883949 5.15127523 0.42083823 6.16524184 -6.05859375 7.1706543 C-8.26281383 7.51417122 -10.46659627 7.86050863 -12.66992188 8.2097168 C-15.83613163 8.71103334 -19.00377419 9.20220174 -22.171875 9.69140625 C-23.15742371 9.84968399 -24.14297241 10.00796173 -25.15838623 10.17103577 C-26.0790387 10.31125656 -26.99969116 10.45147736 -27.94824219 10.59594727 C-29.16069611 10.78580956 -29.16069611 10.78580956 -30.39764404 10.97950745 C-33.7987721 11.20167167 -36.41642798 10.19452401 -39.625 9.125 C-38.965 9.785 -38.305 10.445 -37.625 11.125 C-38.615 11.62 -38.615 11.62 -39.625 12.125 C-32.38413653 11.55069955 -25.25825743 10.6830819 -18.09375 9.49609375 C-16.12895062 9.18006254 -14.16410545 8.86431593 -12.19921875 8.54882812 C-9.15777462 8.05631736 -6.1168228 7.56115416 -3.07666016 7.06079102 C-0.10437231 6.57324372 2.86950235 6.09651837 5.84375 5.62109375 C7.1833075 5.39612465 7.1833075 5.39612465 8.54992676 5.16661072 C24.69058395 2.61058052 35.02968255 4.59912303 48.3125 13.8125 C51.375 16.125 51.375 16.125 52.375 18.125 C54.39636039 18.6315636 54.39636039 18.6315636 56.75 18.8125 C57.54148437 18.89886719 58.33296875 18.98523438 59.1484375 19.07421875 C61.54976726 19.25439789 61.54976726 19.25439789 64.375 18.125 C64.705 17.135 65.035 16.145 65.375 15.125 C66.035 15.125 66.695 15.125 67.375 15.125 C68.365 18.095 68.365 18.095 69.375 21.125 C70.014375 20.7125 70.65375 20.3 71.3125 19.875 C74.90662605 18.99480587 75.55319296 19.46136417 78.75 21.0625 C83.0413683 23.18319282 85.64908885 23.42230894 90.375 22.125 C91.31267212 21.57054199 91.31267212 21.57054199 92.26928711 21.00488281 C95.0530191 19.84168628 96.38723432 20.32147208 99.25390625 21.171875 C100.17494141 21.44 101.09597656 21.708125 102.04492188 21.984375 C102.99947266 22.27828125 103.95402344 22.5721875 104.9375 22.875 C105.89591797 23.1534375 106.85433594 23.431875 107.84179688 23.71875 C111.77612192 24.88774356 114.93572258 25.83214839 118.375 28.125 C117.69993408 27.67664795 117.02486816 27.2282959 116.3293457 26.76635742 C113.02470906 24.93038749 109.72247118 23.86906363 106.10546875 22.86328125 C105.42446609 22.66776169 104.74346344 22.47224213 104.04182434 22.27079773 C101.8839157 21.65291812 99.72332982 21.04507535 97.5625 20.4375 C96.09160807 20.01823993 94.62090272 19.59832472 93.15039062 19.17773438 C89.56072088 18.15256827 85.96858191 17.13637876 82.375 16.125 C83.6484375 14.59375 83.6484375 14.59375 85.375 13.125 C88.55795929 13.56402887 91.30057574 14.22996526 94.375 15.125 C95.01405273 15.30659668 95.65310547 15.48819336 96.31152344 15.67529297 C100.70561326 16.92423551 105.08145587 18.22528869 109.45166016 19.55517578 C111.0454547 20.02736624 112.65233252 20.45513601 114.26171875 20.87109375 C120.05667008 22.45511271 122.95093391 25.2238858 126.375 30.125 C138.87329563 21.6090916 148.64921012 13.41534593 156.375 0.125 C166.0099651 1.6098983 172.6317889 8.69642222 178.375 16.125 C181.11541474 19.99245855 183.08822022 23.26618725 182.375 28.125 C180.46875 30.2578125 180.46875 30.2578125 177.875 32.25 C177.0396875 32.91257812 176.204375 33.57515625 175.34375 34.2578125 C168.5282457 38.544406 162.60635849 39.56532823 154.73046875 39.56640625 C153.83886551 39.57961411 152.94726227 39.59282196 152.02864075 39.60643005 C149.20656081 39.64702495 146.38480435 39.66892745 143.5625 39.6875 C140.7224396 39.71130543 137.88268277 39.73938561 135.0428009 39.77928162 C133.28223791 39.80360323 131.52151345 39.81849059 129.76078796 39.82289124 C124.77170678 39.8781117 124.77170678 39.8781117 120.375 42.125 C111.53249809 43.91964345 101.97985836 43.24315961 92.99353409 43.20016479 C90.26927156 43.18725819 87.5450584 43.18085038 84.82077026 43.17602539 C79.04715774 43.16467707 73.27358666 43.14540773 67.5 43.125 C60.78405933 43.10135575 54.06814155 43.08100492 47.35216904 43.06906128 C44.67274602 43.06259635 41.9933948 43.05009533 39.31399536 43.03735352 C37.67173321 43.03372114 36.02947041 43.03036939 34.38720703 43.02734375 C33.64635361 43.02217743 32.90550018 43.01701111 32.14219666 43.01168823 C28.40789712 43.01130635 25.02133581 43.36204313 21.375 44.125 C21.045 43.795 20.715 43.465 20.375 43.125 C18.07063465 43.01658663 15.76294075 42.97867985 13.45605469 42.96728516 C12.37060616 42.95966408 12.37060616 42.95966408 11.26322937 42.95188904 C9.68629938 42.94116219 8.10935394 42.93255115 6.53240204 42.92576981 C4.03570021 42.91400986 1.53917365 42.8945633 -0.9574585 42.87265015 C-8.05800532 42.81094662 -15.15853664 42.75702719 -22.25927734 42.72363281 C-26.59831728 42.70267398 -30.93704205 42.66735601 -35.27590179 42.62287521 C-36.929637 42.60871879 -38.58342801 42.59999357 -40.23722076 42.59682083 C-42.55464053 42.59190593 -44.87122652 42.5687326 -47.18847656 42.54150391 C-48.50672424 42.53341705 -49.82497192 42.5253302 -51.1831665 42.51699829 C-56.38625184 41.924407 -58.7909186 40.01727312 -62.3125 36.25 C-66.44266419 30.66869704 -67.50784361 25.98136985 -66.625 19.125 C-64.97924112 13.05005111 -61.60951451 9.89272398 -56.43188477 6.57202148 C-51.02637035 3.7853394 -45.21194037 2.58457777 -39.3125 1.25 C-38.07048828 0.94320312 -36.82847656 0.63640625 -35.54882812 0.3203125 C-23.18400011 -2.58448192 -12.43423405 -2.1833462 0 0 Z " fill="#F26A8C" transform="translate(107.625,250.875)"/>
    <path d="M0 0 C1.03540381 -0.00233999 1.03540381 -0.00233999 2.09172487 -0.00472724 C4.42180755 -0.00873942 6.75182593 -0.00554678 9.08190918 -0.00241089 C10.74543801 -0.00376483 12.40896655 -0.00554473 14.07249451 -0.00772095 C18.6033571 -0.01229609 23.13419703 -0.01050539 27.66506004 -0.00734186 C32.39584796 -0.00481868 37.12663388 -0.00715568 41.85742188 -0.00872803 C49.80351105 -0.01054985 57.74959094 -0.0081431 65.69567871 -0.00338745 C74.89618629 0.00205519 84.09667171 0.00029254 93.29717875 -0.00521386 C101.18165226 -0.00974464 109.06611908 -0.01039571 116.95059347 -0.00777519 C121.66616778 -0.00621222 126.38173165 -0.00601918 131.0973053 -0.00931168 C135.52952174 -0.01218989 139.96170948 -0.01021562 144.39392281 -0.00441742 C146.02541112 -0.00308955 147.65690183 -0.00348439 149.28838921 -0.00568008 C151.50601334 -0.00839056 153.72354402 -0.00501176 155.94116211 0 C157.18520561 0.00037703 158.42924911 0.00075405 159.71099091 0.0011425 C162.47058105 0.12698364 162.47058105 0.12698364 163.47058105 1.12698364 C163.56677546 2.82257067 163.59245765 4.52219204 163.59083557 6.22050476 C163.59289757 7.87594803 163.59289757 7.87594803 163.59500122 9.56483459 C163.59140594 10.78618607 163.58781067 12.00753754 163.58410645 13.26589966 C163.58425247 14.54376343 163.5843985 15.8216272 163.58454895 17.13821411 C163.58483691 20.65251955 163.57894046 24.16679114 163.57197499 27.68108869 C163.56574117 31.3499772 163.56513763 35.01886641 163.56394958 38.6877594 C163.56083635 45.639888 163.55262307 52.59200094 163.5426001 59.54412264 C163.53143871 67.45693144 163.52592844 75.36974098 163.52090466 83.2825557 C163.51044045 99.56404085 163.49284117 115.84551025 163.47058105 132.12698364 C141.32260677 132.15031037 119.17463449 132.1679617 97.02665043 132.17879581 C86.74371493 132.18395925 76.46078705 132.19100286 66.17785645 132.2024231 C57.21866156 132.21236847 48.25947218 132.21883672 39.30027193 132.22107214 C34.55338034 132.22237949 29.80650454 132.22546691 25.059618 132.2327137 C20.59705079 132.23947161 16.13450596 132.24160107 11.67193413 132.24009132 C10.02915704 132.24036776 8.38637925 132.24237423 6.74360657 132.24618912 C4.51060735 132.2511228 2.27769396 132.24998315 0.04469299 132.24723816 C-1.20802367 132.24815995 -2.46074034 132.24908175 -3.75141811 132.25003147 C-6.52941895 132.12698364 -6.52941895 132.12698364 -7.52941895 131.12698364 C-7.61593505 129.71128241 -7.63646799 128.29138864 -7.6270752 126.87307739 C-7.62385254 126.01907349 -7.62062988 125.16506958 -7.61730957 124.28518677 C-7.60893066 123.38735474 -7.60055176 122.48952271 -7.59191895 121.56448364 C-7.58740723 120.66278442 -7.58289551 119.76108521 -7.57824707 118.83206177 C-7.56642119 116.59697051 -7.54994115 114.36200928 -7.52941895 112.12698364 C-3.79976755 110.09262834 -1.86036853 109.12698364 2.47058105 109.12698364 C2.47058105 110.77698364 2.47058105 112.42698364 2.47058105 114.12698364 C14.13930526 114.72999484 14.13930526 114.72999484 24.62927246 110.51028442 C28.38067966 106.66173492 31.31469657 102.31566718 34.26257324 97.84109497 C35.76635239 95.70729679 37.14722643 94.33512805 39.47058105 93.12698364 C45.64224987 92.15085235 51.56074656 93.37592157 57.47058105 95.12698364 C57.71808105 94.59073364 57.96558105 94.05448364 58.22058105 93.50198364 C59.7675508 90.56274112 61.60072474 87.86943957 63.47058105 85.12698364 C63.80058105 86.11698364 64.13058105 87.10698364 64.47058105 88.12698364 C65.13058105 88.12698364 65.79058105 88.12698364 66.47058105 88.12698364 C66.48218262 89.12278442 66.48218262 89.12278442 66.49401855 90.13870239 C66.92745938 93.43766868 67.5749252 95.37082783 69.47058105 98.12698364 C74.19316169 100.4194404 79.13096322 101.35152292 84.24987793 102.42288208 C90.27575821 103.74024402 96.24148095 105.30847582 102.21975708 106.82492065 C104.39130529 107.37275151 106.56462008 107.91282466 108.7388916 108.44973755 C109.42437073 108.61911835 110.10984985 108.78849915 110.81610107 108.9630127 C112.70332 109.42868072 114.59072905 109.89357804 116.47814941 110.35842896 C118.49533568 110.87650861 120.49480215 111.46839068 122.47058105 112.12698364 C122.37446533 111.51701538 122.27834961 110.90704712 122.17932129 110.27859497 C121.74665653 107.5001956 121.32725586 104.71994883 120.90808105 101.93948364 C120.68088379 100.4999231 120.68088379 100.4999231 120.44909668 99.03128052 C120.31052246 98.09993286 120.17194824 97.16858521 120.0291748 96.20901489 C119.89825439 95.35541382 119.76733398 94.50181274 119.63244629 93.62234497 C119.45812981 90.9350316 119.83181124 88.73308287 120.47058105 86.12698364 C124.92558105 85.63198364 124.92558105 85.63198364 129.47058105 85.12698364 C129.47058105 91.72698364 129.47058105 98.32698364 129.47058105 105.12698364 C131.12058105 105.12698364 132.77058105 105.12698364 134.47058105 105.12698364 C134.47058105 113.70698364 134.47058105 122.28698364 134.47058105 131.12698364 C143.38058105 130.79698364 152.29058105 130.46698364 161.47058105 130.12698364 C161.96558105 71.22198364 161.96558105 71.22198364 162.47058105 11.12698364 C106.70058105 11.12698364 50.93058105 11.12698364 -6.52941895 11.12698364 C-6.52941895 21.02698364 -6.52941895 30.92698364 -6.52941895 41.12698364 C-6.85941895 41.12698364 -7.18941895 41.12698364 -7.52941895 41.12698364 C-7.55406599 35.44868286 -7.57225357 29.77041295 -7.58435059 24.09207153 C-7.5893915 22.15879779 -7.59622413 20.22552788 -7.6048584 18.29226685 C-7.61693459 15.51971493 -7.62264951 12.74721323 -7.6270752 9.97463989 C-7.63223648 9.10485001 -7.63739777 8.23506012 -7.64271545 7.33891296 C-7.6429108 5.2679255 -7.59150062 3.1970404 -7.52941895 1.12698364 C-5.6591532 -0.74328211 -2.49181129 0.00075518 0 0 Z " fill="#8F9DDE" transform="translate(194.5294189453125,21.873016357421875)"/>
    <path d="M0 0 C1.5660348 1.5660348 1.20784495 3.07198911 1.25 5.25 C0.9581961 21.07474995 -5.61586977 33.79462402 -16.4375 45 C-22.34056955 50.5631456 -28.65215405 55.50182277 -36 59 C-36.515625 58.071875 -37.03125 57.14375 -37.5625 56.1875 C-40.02531559 52.56121636 -42.90991098 51.29650808 -47 50 C-47.95261719 49.69449219 -48.90523437 49.38898438 -49.88671875 49.07421875 C-52.08914544 48.38612646 -54.29645074 47.71349967 -56.5078125 47.0546875 C-58.86678421 46.34224638 -61.21590876 45.59647863 -63.5546875 44.8203125 C-64.69164062 44.44648438 -65.82859375 44.07265625 -67 43.6875 C-68.546875 43.16736328 -68.546875 43.16736328 -70.125 42.63671875 C-73.20164014 41.95534328 -74.9765976 42.29663903 -78 43 C-77.32533691 43.19110352 -76.65067383 43.38220703 -75.95556641 43.57910156 C-72.84379003 44.46392147 -69.73441238 45.35690969 -66.625 46.25 C-65.56410156 46.55035156 -64.50320312 46.85070312 -63.41015625 47.16015625 C-44.89793592 52.49803573 -44.89793592 52.49803573 -42.72900391 56.12597656 C-42.48843262 56.7444043 -42.24786133 57.36283203 -42 58 C-42.96550781 57.39929688 -43.93101562 56.79859375 -44.92578125 56.1796875 C-49.16623732 53.76114397 -53.49775674 52.40859008 -58.1875 51.125 C-58.98091797 50.8878125 -59.77433594 50.650625 -60.59179688 50.40625 C-61.35943359 50.19226563 -62.12707031 49.97828125 -62.91796875 49.7578125 C-63.60656982 49.5633252 -64.2951709 49.36883789 -65.00463867 49.16845703 C-67.56739012 48.95209847 -68.79116583 49.74535328 -71 51 C-76.90899988 52.65451997 -80.29703418 51.35148291 -85.5703125 48.71484375 C-88.7095479 47.79124234 -90.14708674 48.54308522 -93 50 C-93.29296875 44.04296875 -93.29296875 44.04296875 -93 42 C-92.01621306 40.98404564 -91.01507278 39.98469653 -90 39 C-89.17809038 36.84132722 -89.17809038 36.84132722 -88.75 34.5 C-88.57984375 33.7265625 -88.4096875 32.953125 -88.234375 32.15625 C-87.82873409 29.81898103 -87.82873409 29.81898103 -89 27 C-90.485 27.495 -90.485 27.495 -92 28 C-97.9646672 28.39764448 -101.72430277 27.84887651 -107 25 C-109 22 -109 22 -108.625 18.8125 C-108.41875 17.884375 -108.2125 16.95625 -108 16 C-107.34 16.33 -106.68 16.66 -106 17 C-106 18.98 -106 20.96 -106 23 C-105.38511719 23.20496094 -104.77023438 23.40992188 -104.13671875 23.62109375 C-100.7578125 24.74739583 -97.37890625 25.87369792 -94 27 C-94 26.34 -94 25.68 -94 25 C-93.34 25 -92.68 25 -92 25 C-91.78085938 24.22011719 -91.56171875 23.44023437 -91.3359375 22.63671875 C-89.54600332 17.76412016 -87.12405051 13.35353784 -84.625 8.8125 C-84.14289063 7.91080078 -83.66078125 7.00910156 -83.1640625 6.08007812 C-82.6896875 5.21447266 -82.2153125 4.34886719 -81.7265625 3.45703125 C-81.08581787 2.2810437 -81.08581787 2.2810437 -80.43212891 1.08129883 C-77.61013573 -3.01987605 -74.34039297 -4.42303709 -69.625 -5.625 C-68.70976562 -5.86476562 -67.79453125 -6.10453125 -66.8515625 -6.3515625 C-45.19383155 -11.27647118 -20.50957139 -8.44978473 0 0 Z " fill="#F7AB1E" transform="translate(269,223)"/>
    <path d="M0 0 C5.13279389 2.79607449 9.080611 6.866833 10.9375 12.4375 C11.0181622 13.91873547 11.04511193 15.40332204 11.03515625 16.88671875 C11.03193359 17.73427734 11.02871094 18.58183594 11.02539062 19.45507812 C11.01282227 20.77668945 11.01282227 20.77668945 11 22.125 C10.99548828 23.01767578 10.99097656 23.91035156 10.98632812 24.83007812 C10.97454983 27.03261987 10.95810164 29.23502599 10.9375 31.4375 C11.88625 30.921875 12.835 30.40625 13.8125 29.875 C14.84375 29.400625 15.875 28.92625 16.9375 28.4375 C17.5975 28.7675 18.2575 29.0975 18.9375 29.4375 C17.968125 29.870625 16.99875 30.30375 16 30.75 C13.47612258 32.37122008 12.99839547 33.1713217 12.31640625 36.15234375 C12.08463857 38.92285897 11.94708531 41.65776034 11.9375 44.4375 C12.46182617 44.1293335 12.98615234 43.82116699 13.52636719 43.50366211 C15.90616502 42.11456959 18.29649051 40.74469639 20.6875 39.375 C21.5125 38.88966797 22.3375 38.40433594 23.1875 37.90429688 C23.98671875 37.44990234 24.7859375 36.99550781 25.609375 36.52734375 C26.3425293 36.10316162 27.07568359 35.67897949 27.83105469 35.24194336 C30.34729503 34.28100085 31.46965999 34.42507848 33.9375 35.4375 C36.87848654 39.67102202 36.52427641 44.50255994 35.9375 49.4375 C35.00596679 52.36180677 33.52022076 54.81736564 31.9375 57.4375 C31.00655725 59.06715467 30.07584504 60.69694419 29.1484375 62.32861328 C28.46518656 63.52788818 27.77897623 64.72548181 27.08984375 65.92138672 C23.57377686 72.02366512 20.24301857 78.21899318 16.9375 84.4375 C16.2775 84.4375 15.6175 84.4375 14.9375 84.4375 C14.9375 85.0975 14.9375 85.7575 14.9375 86.4375 C13.14426747 86.15562064 11.35292874 85.8616719 9.5625 85.5625 C8.56476563 85.40007812 7.56703125 85.23765625 6.5390625 85.0703125 C3.9375 84.4375 3.9375 84.4375 1.9375 82.4375 C1.8125 79.3125 1.8125 79.3125 1.9375 76.4375 C0.1740625 76.9325 0.1740625 76.9325 -1.625 77.4375 C-9.48068224 79.34982895 -15.55111058 77.97656121 -23.0625 75.4375 C-23.26560174 67.60962034 -22.46423885 60.02038931 -21.5625 52.25 C-21.27826698 49.77768487 -20.99691343 47.30503663 -20.71875 44.83203125 C-20.59306641 43.74768799 -20.46738281 42.66334473 -20.33789062 41.54614258 C-20.06727009 38.49134532 -20.01415665 35.50241095 -20.0625 32.4375 C-20.26875 33.5925 -20.475 34.7475 -20.6875 35.9375 C-21.68736252 40.54556207 -23.32907858 44.81728091 -25.0625 49.1875 C-27.49504529 55.36970356 -28.96421091 61.22958167 -29.73828125 67.86328125 C-30.0625 70.4375 -30.0625 70.4375 -31.0625 73.4375 C-31.7225 73.4375 -32.3825 73.4375 -33.0625 73.4375 C-32.2307356 64.17515232 -30.94213268 54.98745527 -29.64648438 45.78051758 C-29.46666016 44.50200928 -29.28683594 43.22350098 -29.1015625 41.90625 C-28.92399414 40.64425781 -28.74642578 39.38226563 -28.56347656 38.08203125 C-28.10902049 34.77592977 -27.68366743 31.46808012 -27.2734375 28.15625 C-27.15210449 27.21370361 -27.03077148 26.27115723 -26.90576172 25.30004883 C-26.68503999 23.57995782 -26.47484876 21.85846513 -26.27783203 20.13549805 C-25.35735045 13.15917832 -23.20971983 6.50901812 -17.5 2 C-16.92121094 1.52691406 -16.34242188 1.05382812 -15.74609375 0.56640625 C-10.82716446 -2.73190132 -5.22027598 -2.34012371 0 0 Z " fill="#F16A8C" transform="translate(160.0625,163.5625)"/>
    <path d="M0 0 C9.6349651 1.4848983 16.2567889 8.57142222 22 16 C24.74041474 19.86745855 26.71322022 23.14118725 26 28 C24.09375 30.1328125 24.09375 30.1328125 21.5 32.125 C20.6646875 32.78757812 19.829375 33.45015625 18.96875 34.1328125 C12.1532457 38.419406 6.23135849 39.44032823 -1.64453125 39.44140625 C-2.53613449 39.45461411 -3.42773773 39.46782196 -4.34635925 39.48143005 C-7.16843919 39.52202495 -9.99019565 39.54392745 -12.8125 39.5625 C-15.6525604 39.58630543 -18.49231723 39.61438561 -21.3321991 39.65428162 C-23.09276209 39.67860323 -24.85348655 39.69349059 -26.61421204 39.69789124 C-31.60329322 39.7531117 -31.60329322 39.7531117 -36 42 C-43.18541554 43.27452023 -50.63038691 43.14382112 -57.90625 43.09375 C-58.92891968 43.09016479 -59.95158936 43.08657959 -61.00524902 43.08288574 C-73.83862868 43.01770737 -86.66934963 42.75799823 -99.5 42.5 C-101.9921834 42.45161124 -104.4843709 42.40343316 -106.9765625 42.35546875 C-112.9844242 42.2393955 -118.99223095 42.12076893 -125 42 C-125.33 41.34 -125.66 40.68 -126 40 C-126.99 39.67 -127.98 39.34 -129 39 C-129.31440578 33.75990358 -128.93847184 30.40770776 -126 26 C-122.8125 23.625 -122.8125 23.625 -120 22 C-120.33 21.34 -120.66 20.68 -121 20 C-125.32893316 21.00672864 -128.02188671 22.37420352 -130.765625 25.9375 C-133.40803408 30.35266453 -135.17581304 35.20277642 -137 40 C-137.33 40 -137.66 40 -138 40 C-137.24688781 32.61950049 -135.24900802 26.39897968 -130 21 C-125.82344565 18.37751238 -121.74190535 17.3824831 -116.953125 16.52734375 C-114.78331277 16.11554134 -114.78331277 16.11554134 -113 14 C-109.5 14.1875 -109.5 14.1875 -106 15 C-105.34 15.99 -104.68 16.98 -104 18 C-101.91053064 18.61884051 -101.91053064 18.61884051 -99.5625 18.75 C-98.78003906 18.82734375 -97.99757812 18.9046875 -97.19140625 18.984375 C-94.81946768 19.119258 -94.81946768 19.119258 -92 18 C-91.505 16.515 -91.505 16.515 -91 15 C-90.34 15 -89.68 15 -89 15 C-88.34 16.98 -87.68 18.96 -87 21 C-86.360625 20.5875 -85.72125 20.175 -85.0625 19.75 C-81.46837395 18.86980587 -80.82180704 19.33636417 -77.625 20.9375 C-73.3336317 23.05819282 -70.72591115 23.29730894 -66 22 C-65.37488525 21.63036133 -64.74977051 21.26072266 -64.10571289 20.87988281 C-61.3219809 19.71668628 -59.98776568 20.19647208 -57.12109375 21.046875 C-56.20005859 21.315 -55.27902344 21.583125 -54.33007812 21.859375 C-53.37552734 22.15328125 -52.42097656 22.4471875 -51.4375 22.75 C-50.47908203 23.0284375 -49.52066406 23.306875 -48.53320312 23.59375 C-44.59887808 24.76274356 -41.43927742 25.70714839 -38 28 C-38.67506592 27.55164795 -39.35013184 27.1032959 -40.0456543 26.64135742 C-43.35029094 24.80538749 -46.65252882 23.74406363 -50.26953125 22.73828125 C-50.95053391 22.54276169 -51.63153656 22.34724213 -52.33317566 22.14579773 C-54.4910843 21.52791812 -56.65167018 20.92007535 -58.8125 20.3125 C-60.28339193 19.89323993 -61.75409728 19.47332472 -63.22460938 19.05273438 C-66.81427912 18.02756827 -70.40641809 17.01137876 -74 16 C-72.7265625 14.46875 -72.7265625 14.46875 -71 13 C-67.81704071 13.43902887 -65.07442426 14.10496526 -62 15 C-61.0414209 15.27239502 -61.0414209 15.27239502 -60.06347656 15.55029297 C-55.66938674 16.79923551 -51.29354413 18.10028869 -46.92333984 19.43017578 C-45.3295453 19.90236624 -43.72266748 20.33013601 -42.11328125 20.74609375 C-36.31832992 22.33011271 -33.42406609 25.0988858 -30 30 C-17.50170437 21.4840916 -7.72578988 13.29034593 0 0 Z " fill="#DC9577" transform="translate(264,251)"/>
    <path d="M0 0 C55.77 0 111.54 0 169 0 C169 0.33 169 0.66 169 1 C113.56 1 58.12 1 1 1 C1 10.57 1 20.14 1 30 C3.85269531 29.94199219 6.70539063 29.88398437 9.64453125 29.82421875 C12.40467549 29.78523531 15.16478918 29.75486961 17.92504883 29.7253418 C19.8447846 29.7001825 21.76442444 29.66605115 23.68383789 29.62280273 C26.44180946 29.56221147 29.19851609 29.53380548 31.95703125 29.51171875 C32.81649857 29.48591232 33.67596588 29.4601059 34.56147766 29.43351746 C36.82052571 29.43245183 38.80570734 29.46142062 41 30 C43.06518555 32.53051758 43.06518555 32.53051758 44 35 C47.3 34.34 50.6 33.68 54 33 C52.56770833 34.66015625 51.13541667 36.3203125 49.703125 37.98046875 C49.14109375 38.64691406 48.5790625 39.31335938 48 40 C47.28714844 40.66128906 46.57429688 41.32257813 45.83984375 42.00390625 C42.97296875 46.67246914 43.36197156 51.37409065 43.3125 56.75 C43.27062082 58.84903528 43.22524507 60.94800475 43.17578125 63.046875 C43.16458252 63.97338867 43.15338379 64.89990234 43.1418457 65.85449219 C43 68 43 68 42 69 C39.32941149 69.14115161 36.67567762 69.04247107 34 69 C34.01160156 69.99902344 34.02320313 70.99804688 34.03515625 72.02734375 C34.04417969 73.31769531 34.05320313 74.60804687 34.0625 75.9375 C34.07410156 77.22527344 34.08570313 78.51304688 34.09765625 79.83984375 C34 83 34 83 33 84 C31.668108 84.13237003 30.32995352 84.20319626 28.9921875 84.24609375 C28.16976562 84.27896484 27.34734375 84.31183594 26.5 84.34570312 C24.77354256 84.40607775 23.04697722 84.46345484 21.3203125 84.51757812 C17.43723457 84.67736316 14.14283263 84.95912457 10.3828125 86.03515625 C7 87 7 87 -1 87 C-1 81.39 -1 75.78 -1 70 C-5.8016221 70.07889429 -5.8016221 70.07889429 -10.6027832 70.18017578 C-14.31447871 70.21099473 -15.83533664 70.10977558 -19 68 C-19.2917727 65.25714531 -19.39605798 62.74342461 -19.36328125 60 C-19.36377975 59.20851562 -19.36427826 58.41703125 -19.36479187 57.6015625 C-19.36244989 55.92705781 -19.35271402 54.25254971 -19.33618164 52.578125 C-19.31259275 50.0100976 -19.31561887 47.44310814 -19.32226562 44.875 C-19.31668888 43.24999379 -19.30957902 41.62499196 -19.30078125 40 C-19.30169266 39.22914062 -19.30260406 38.45828125 -19.30354309 37.6640625 C-19.23102547 32.23102547 -19.23102547 32.23102547 -17 30 C-14.08274582 29.85442843 -11.28685195 29.81401033 -8.375 29.875 C-4.229375 29.936875 -4.229375 29.936875 0 30 C0 20.1 0 10.2 0 0 Z " fill="#F1EDE5" transform="translate(188,33)"/>
    <path d="M0 0 C1.03540381 -0.00233999 1.03540381 -0.00233999 2.09172487 -0.00472724 C4.42180755 -0.00873942 6.75182593 -0.00554678 9.08190918 -0.00241089 C10.74543801 -0.00376483 12.40896655 -0.00554473 14.07249451 -0.00772095 C18.6033571 -0.01229609 23.13419703 -0.01050539 27.66506004 -0.00734186 C32.39584796 -0.00481868 37.12663388 -0.00715568 41.85742188 -0.00872803 C49.80351105 -0.01054985 57.74959094 -0.0081431 65.69567871 -0.00338745 C74.89618629 0.00205519 84.09667171 0.00029254 93.29717875 -0.00521386 C101.18165226 -0.00974464 109.06611908 -0.01039571 116.95059347 -0.00777519 C121.66616778 -0.00621222 126.38173165 -0.00601918 131.0973053 -0.00931168 C135.52952174 -0.01218989 139.96170948 -0.01021562 144.39392281 -0.00441742 C146.02541112 -0.00308955 147.65690183 -0.00348439 149.28838921 -0.00568008 C151.50601334 -0.00839056 153.72354402 -0.00501176 155.94116211 0 C157.18520561 0.00037703 158.42924911 0.00075405 159.71099091 0.0011425 C162.47058105 0.12698364 162.47058105 0.12698364 163.47058105 1.12698364 C163.56677546 2.82257067 163.59245765 4.52219204 163.59083557 6.22050476 C163.59289757 7.87594803 163.59289757 7.87594803 163.59500122 9.56483459 C163.59140594 10.78618607 163.58781067 12.00753754 163.58410645 13.26589966 C163.58425247 14.54376343 163.5843985 15.8216272 163.58454895 17.13821411 C163.58483691 20.65251955 163.57894046 24.16679114 163.57197499 27.68108869 C163.56574117 31.3499772 163.56513763 35.01886641 163.56394958 38.6877594 C163.56083635 45.639888 163.55262307 52.59200094 163.5426001 59.54412264 C163.53143871 67.45693144 163.52592844 75.36974098 163.52090466 83.2825557 C163.51044045 99.5640423 163.49209507 115.84550733 163.47058105 132.12698364 C146.31058105 132.12698364 129.15058105 132.12698364 111.47058105 132.12698364 C111.47058105 131.79698364 111.47058105 131.46698364 111.47058105 131.12698364 C113.45058105 131.12698364 115.43058105 131.12698364 117.47058105 131.12698364 C117.38808105 130.17823364 117.30558105 129.22948364 117.22058105 128.25198364 C117.19297849 124.8223644 118.0727975 122.42996601 119.47058105 119.31448364 C123.76022739 109.15319375 120.85081088 97.74982391 119.47058105 87.12698364 C126.09558105 85.12698364 126.09558105 85.12698364 129.47058105 85.12698364 C129.47058105 91.72698364 129.47058105 98.32698364 129.47058105 105.12698364 C131.12058105 105.12698364 132.77058105 105.12698364 134.47058105 105.12698364 C134.47058105 113.70698364 134.47058105 122.28698364 134.47058105 131.12698364 C143.38058105 130.79698364 152.29058105 130.46698364 161.47058105 130.12698364 C161.96558105 71.22198364 161.96558105 71.22198364 162.47058105 11.12698364 C106.70058105 11.12698364 50.93058105 11.12698364 -6.52941895 11.12698364 C-6.52941895 21.02698364 -6.52941895 30.92698364 -6.52941895 41.12698364 C-6.85941895 41.12698364 -7.18941895 41.12698364 -7.52941895 41.12698364 C-7.55406599 35.44868286 -7.57225357 29.77041295 -7.58435059 24.09207153 C-7.5893915 22.15879779 -7.59622413 20.22552788 -7.6048584 18.29226685 C-7.61693459 15.51971493 -7.62264951 12.74721323 -7.6270752 9.97463989 C-7.63223648 9.10485001 -7.63739777 8.23506012 -7.64271545 7.33891296 C-7.6429108 5.2679255 -7.59150062 3.1970404 -7.52941895 1.12698364 C-5.6591532 -0.74328211 -2.49181129 0.00075518 0 0 Z " fill="#92A0E1" transform="translate(194.5294189453125,21.873016357421875)"/>
    <path d="M0 0 C0.33 0 0.66 0 1 0 C1.02470049 5.78409513 1.04286023 11.56815962 1.05493164 17.35229492 C1.0599635 19.32039932 1.06678958 21.28849997 1.07543945 23.2565918 C1.08755517 26.08383101 1.09323976 28.91102084 1.09765625 31.73828125 C1.10281754 32.61962234 1.10797882 33.50096344 1.11329651 34.40901184 C1.11337204 35.22963608 1.11344757 36.05026031 1.11352539 36.89575195 C1.115746 37.61745071 1.11796661 38.33914948 1.12025452 39.0827179 C1 41 1 41 0 44 C-6.6 44 -13.2 44 -20 44 C-20 46.97 -20 49.94 -20 53 C-21.20914063 53.03738281 -22.41828125 53.07476562 -23.6640625 53.11328125 C-36.86522277 53.60722523 -49.23065047 54.4363243 -61 61 C-61.66 61 -62.32 61 -63 61 C-63.48539869 59.16830682 -63.96297186 57.33453941 -64.4375 55.5 C-64.70433594 54.4790625 -64.97117187 53.458125 -65.24609375 52.40625 C-68.38742524 38.21329116 -69.98462966 18.53800352 -62 5.8125 C-57.42371758 1.66524405 -50.88860823 2.52482686 -45.05712891 2.80761719 C-41.45957533 3.1440606 -37.99929062 3.93267603 -34.5 4.8125 C-33.51350464 5.06036255 -33.51350464 5.06036255 -32.50708008 5.31323242 C-28.39352671 6.42862108 -24.74728506 7.98178629 -21 10 C-21.62320121 16.43974581 -22.64008262 22.67572401 -24 29 C-23.16082031 28.96519531 -23.16082031 28.96519531 -22.3046875 28.9296875 C-14.4561315 28.7530319 -8.08373764 29.84518034 0 31 C0 20.77 0 10.54 0 0 Z " fill="#909FE1" transform="translate(88,182)"/>
    <path d="M0 0 C2.64 0.99 5.28 1.98 8 3 C8.7135591 18.93615314 3.84932772 32.24231825 -6.68359375 44.1484375 C-13.23508174 50.93224776 -20.44474762 56.9269983 -29 61 C-29.515625 60.071875 -30.03125 59.14375 -30.5625 58.1875 C-33.02531559 54.56121636 -35.90991098 53.29650808 -40 52 C-40.95261719 51.69449219 -41.90523437 51.38898438 -42.88671875 51.07421875 C-45.08914544 50.38612646 -47.29645074 49.71349967 -49.5078125 49.0546875 C-51.86678421 48.34224638 -54.21590876 47.59647863 -56.5546875 46.8203125 C-57.69164062 46.44648438 -58.82859375 46.07265625 -60 45.6875 C-61.546875 45.16736328 -61.546875 45.16736328 -63.125 44.63671875 C-66.20164014 43.95534328 -67.9765976 44.29663903 -71 45 C-70.32533691 45.19110352 -69.65067383 45.38220703 -68.95556641 45.57910156 C-65.84379003 46.46392147 -62.73441238 47.35690969 -59.625 48.25 C-58.56410156 48.55035156 -57.50320312 48.85070312 -56.41015625 49.16015625 C-37.89793592 54.49803573 -37.89793592 54.49803573 -35.72900391 58.12597656 C-35.48843262 58.7444043 -35.24786133 59.36283203 -35 60 C-35.96550781 59.39929688 -36.93101562 58.79859375 -37.92578125 58.1796875 C-42.16623732 55.76114397 -46.49775674 54.40859008 -51.1875 53.125 C-51.98091797 52.8878125 -52.77433594 52.650625 -53.59179688 52.40625 C-54.35943359 52.19226563 -55.12707031 51.97828125 -55.91796875 51.7578125 C-56.95087036 51.46608154 -56.95087036 51.46608154 -58.00463867 51.16845703 C-60.56739012 50.95209847 -61.79116583 51.74535328 -64 53 C-69.90899988 54.65451997 -73.29703418 53.35148291 -78.5703125 50.71484375 C-81.7095479 49.79124234 -83.14708674 50.54308522 -86 52 C-86.3674833 44.52783964 -86.3674833 44.52783964 -84.92578125 42.45703125 C-82.16011085 40.36454634 -79.13716044 38.93762124 -76 37.5 C-75.32864014 37.19102783 -74.65728027 36.88205566 -73.96557617 36.5637207 C-65.32841299 32.68642019 -56.68264066 30.79925583 -47.3359375 29.4296875 C-45.04809854 29.23727038 -45.04809854 29.23727038 -44 28 C-39.76685233 27.76038787 -36.63263511 27.67511353 -33 30 C-32.690625 28.96875 -32.38125 27.9375 -32.0625 26.875 C-29.81728425 21.7534249 -25.89049026 19.41737909 -21 17 C-15.08260021 14.74075635 -9.39600089 12.6920444 -3 13 C-2.814375 11.8553125 -2.814375 11.8553125 -2.625 10.6875 C-2 8 -2 8 0 5 C0.16713569 2.37468476 0.16713569 2.37468476 0 0 Z " fill="#F5C33B" transform="translate(262,221)"/>
    <path d="M0 0 C0.45117188 1.10730469 0.90234375 2.21460938 1.3671875 3.35546875 C3.16823981 7.37552091 4.2334932 8.78922427 8 11 C10.97119187 11.87387996 13.94602455 12.49433086 17 13 C14.37661912 15.62338088 12.35959474 15.76378421 8.7421875 16.55078125 C7.47632812 16.83759766 6.21046875 17.12441406 4.90625 17.41992188 C2.89999277 17.86659709 0.8929748 18.30862338 -1.11621094 18.74194336 C-13.69135733 21.16729223 -13.69135733 21.16729223 -23.39697266 28.90161133 C-26.24649039 33.67666639 -26.96081654 38.54903094 -26 44 C-24.36012959 48.51964283 -21.92168272 52.20767258 -19 56 C-43.54992504 56.72323838 -43.54992504 56.72323838 -51 50 C-56.41222665 44.61398268 -58.98834754 39.99513204 -59.375 32.25 C-59.15409587 24.50672889 -56.78412727 18.30430125 -51.25 12.8125 C-36.20305604 0.57133932 -18.52515796 -0.34554699 0 0 Z " fill="#D1DF3D" transform="translate(68,235)"/>
    <path d="M0 0 C0.66 0.66 1.32 1.32 2 2 C1.95875 2.7425 1.9175 3.485 1.875 4.25 C2.04639335 8.02065369 3.84944688 9.97578468 6 13 C6 13.66 6 14.32 6 15 C6.99 14.67 7.98 14.34 9 14 C8.835 14.825 8.67 15.65 8.5 16.5 C8.11129836 19.22091148 8.01239166 21.3650183 8.125 24.0625 C7.98663545 28.42098338 7.08686387 30.91313613 4 34 C1.32941149 34.14115161 -1.32432238 34.04247107 -4 34 C-3.38125 34.20625 -2.7625 34.4125 -2.125 34.625 C0.84653645 36.54775888 1.13024659 38.66594527 2 42 C0.35 42 -1.3 42 -3 42 C-3.04125 42.598125 -3.0825 43.19625 -3.125 43.8125 C-4 46 -4 46 -6.4375 47.75 C-10.99194361 49.34805039 -15.2120365 49.63454938 -20 49 C-20.99 48.34 -21.98 47.68 -23 47 C-25.09595364 47.08677308 -25.09595364 47.08677308 -27.375 47.6875 C-28.25414062 47.88988281 -29.13328125 48.09226563 -30.0390625 48.30078125 C-31.01617187 48.53152344 -31.99328125 48.76226562 -33 49 C-34.10085937 49.22042969 -35.20171875 49.44085938 -36.3359375 49.66796875 C-45.37654768 51.54022326 -51.2437462 54.01457262 -56.7421875 61.62890625 C-58.969055 65.82675896 -59.5011297 70.32094063 -60 75 C-62.45618087 72.54381913 -62.30522045 71.0574801 -62.38085938 67.69360352 C-62.34999328 56.46734779 -60.61899845 47.68236064 -52.6171875 39.2578125 C-48.80419335 35.96839367 -44.66218978 33.24768403 -40.36791992 30.62475586 C-33.67626034 26.4675656 -30.02532545 22.0766095 -27.5 14.4375 C-24.26315789 5.75328947 -24.26315789 5.75328947 -20 3 C-13.39198672 0.30623205 -7.01966339 -2.18389528 0 0 Z " fill="#919FE0" transform="translate(130,105)"/>
    <path d="M0 0 C9.6349651 1.4848983 16.2567889 8.57142222 22 16 C24.74041474 19.86745855 26.71322022 23.14118725 26 28 C24.09375 30.1328125 24.09375 30.1328125 21.5 32.125 C20.6646875 32.78757812 19.829375 33.45015625 18.96875 34.1328125 C12.07265965 38.47009038 6.2154235 39.43713061 -1.75 39.29296875 C-2.64871826 39.28872391 -3.54743652 39.28447906 -4.47338867 39.28010559 C-7.31591012 39.26344584 -10.15769645 39.22581832 -13 39.1875 C-14.93879177 39.17243671 -16.87759477 39.15875119 -18.81640625 39.14648438 C-23.54454979 39.1135841 -28.27215069 39.06189115 -33 39 C-32.57553082 37.55365008 -32.13587721 36.11175118 -31.68994141 34.671875 C-31.44676178 33.8684668 -31.20358215 33.06505859 -30.95303345 32.23730469 C-29.38675457 28.56036859 -26.69936844 27.00820612 -23.375 25 C-22.10649344 24.16124106 -20.84216614 23.31612838 -19.58203125 22.46484375 C-18.9679541 22.05218262 -18.35387695 21.63952148 -17.72119141 21.21435547 C-9.87766946 15.68050041 -4.761545 8.19108223 0 0 Z " fill="#F75F86" transform="translate(264,251)"/>
    <path d="M0 0 C3.18295929 0.43902887 5.92557574 1.10496526 9 2 C9.9585791 2.27239502 9.9585791 2.27239502 10.93652344 2.55029297 C15.32878315 3.79871534 19.70367534 5.09708559 24.07226562 6.42578125 C25.68090795 6.9049513 27.30034597 7.34768609 28.921875 7.78125 C32.59405638 8.81636153 35.37897943 9.91608782 38.125 12.625 C40.31160958 16.56089725 40.44620603 18.60799664 39.62109375 22.9453125 C38.64638116 26.16983338 37.97456105 27.30025083 35 29 C27.395482 30.22581281 19.61923946 30.15448844 11.9375 30.125 C10.92623047 30.12886719 9.91496094 30.13273437 8.87304688 30.13671875 C-8.88615208 30.11384792 -8.88615208 30.11384792 -11 28 C-11.1328125 26.1875 -11.1328125 26.1875 -11.125 24 C-11.12886719 22.9171875 -11.12886719 22.9171875 -11.1328125 21.8125 C-11 20 -11 20 -10 19 C-7.67182036 18.63239269 -5.3381615 18.29758419 -3 18 C-6.7935871 14.78119883 -10.65829477 12.3836813 -15 10 C-14.67 9.01 -14.34 8.02 -14 7 C-11 6 -11 6 -8.984375 6.8125 C-8.24703125 7.204375 -7.5096875 7.59625 -6.75 8 C-2.41801255 10.04272579 0.27770799 10.29631545 5 9 C5.62511475 8.63036133 6.25022949 8.26072266 6.89428711 7.87988281 C9.6780191 6.71668628 11.01223432 7.19647208 13.87890625 8.046875 C14.79994141 8.315 15.72097656 8.583125 16.66992188 8.859375 C17.62447266 9.15328125 18.57902344 9.4471875 19.5625 9.75 C20.52091797 10.0284375 21.47933594 10.306875 22.46679688 10.59375 C26.40112192 11.76274356 29.56072258 12.70714839 33 15 C32.32493408 14.55164795 31.64986816 14.1032959 30.9543457 13.64135742 C27.64970906 11.80538749 24.34747118 10.74406363 20.73046875 9.73828125 C20.04946609 9.54276169 19.36846344 9.34724213 18.66682434 9.14579773 C16.5089157 8.52791812 14.34832982 7.92007535 12.1875 7.3125 C10.71660807 6.89323993 9.24590272 6.47332472 7.77539062 6.05273438 C4.18572088 5.02756827 0.59358191 4.01137876 -3 3 C-1.7265625 1.46875 -1.7265625 1.46875 0 0 Z " fill="#F1E8D7" transform="translate(193,264)"/>
    <path d="M0 0 C0.33 0 0.66 0 1 0 C1.02470049 5.78409513 1.04286023 11.56815962 1.05493164 17.35229492 C1.0599635 19.32039932 1.06678958 21.28849997 1.07543945 23.2565918 C1.08755517 26.08383101 1.09323976 28.91102084 1.09765625 31.73828125 C1.10281754 32.61962234 1.10797882 33.50096344 1.11329651 34.40901184 C1.11337204 35.22963608 1.11344757 36.05026031 1.11352539 36.89575195 C1.115746 37.61745071 1.11796661 38.33914948 1.12025452 39.0827179 C1 41 1 41 0 44 C-6.6 44 -13.2 44 -20 44 C-20 42.02 -20 40.04 -20 38 C-17.41633755 38.14120016 -14.83317115 38.28778333 -12.25 38.4375 C-11.15558594 38.49647461 -11.15558594 38.49647461 -10.0390625 38.55664062 C-6.5727027 38.76147098 -3.34666974 39.0852002 0 40 C0 37.36 0 34.72 0 32 C-0.54785156 32.02320313 -1.09570312 32.04640625 -1.66015625 32.0703125 C-9.58535134 32.25072345 -17.17815332 31.16806244 -25 30 C-25 30.66 -25 31.32 -25 32 C-27 31 -29 30 -31 29 C-38.69697491 28.14748696 -44.26260385 28.95818947 -50.94140625 32.90625 C-53 34 -53 34 -56 34 C-55.02490912 30.84970637 -54.05811815 28.09835379 -52.375 25.25 C-50.47883832 20.7681633 -50.27640908 16.80059785 -51 12 C-52.33202863 8.89193321 -53.8996166 6.5501917 -57 5 C-57 4.34 -57 3.68 -57 3 C-49.14445029 2.55812533 -42.10645492 2.88595875 -34.5 4.8125 C-33.84257813 4.97782227 -33.18515625 5.14314453 -32.5078125 5.31347656 C-28.39375384 6.42805062 -24.74747666 7.98168309 -21 10 C-21.62320121 16.43974581 -22.64008262 22.67572401 -24 29 C-23.16082031 28.96519531 -23.16082031 28.96519531 -22.3046875 28.9296875 C-14.4561315 28.7530319 -8.08373764 29.84518034 0 31 C0 20.77 0 10.54 0 0 Z " fill="#677BD8" transform="translate(88,182)"/>
    <path d="M0 0 C0.5360826 7.2668974 -0.25917521 11.80720602 -4 18 C-4.93094275 19.62965467 -5.86165496 21.25944419 -6.7890625 22.89111328 C-7.47231344 24.09038818 -8.15852377 25.28798181 -8.84765625 26.48388672 C-12.36372314 32.58616512 -15.69448143 38.78149318 -19 45 C-19.66 45 -20.32 45 -21 45 C-21 45.66 -21 46.32 -21 47 C-22.79323253 46.71812064 -24.58457126 46.4241719 -26.375 46.125 C-27.37273437 45.96257812 -28.37046875 45.80015625 -29.3984375 45.6328125 C-32 45 -32 45 -34 43 C-34.96002203 35.20797651 -32.19249049 28.49898413 -29.5625 21.25 C-29.16095703 20.03183594 -28.75941406 18.81367188 -28.34570312 17.55859375 C-25.23321236 8.9386575 -25.23321236 8.9386575 -21.84838867 6.36230469 C-19.58068843 5.34178025 -17.40312502 4.62716031 -15 4 C-13.96230469 3.58234375 -12.92460937 3.1646875 -11.85546875 2.734375 C-10.97503906 2.40953125 -10.09460938 2.0846875 -9.1875 1.75 C-8.29417969 1.41484375 -7.40085938 1.0796875 -6.48046875 0.734375 C-4 0 -4 0 0 0 Z " fill="#E39572" transform="translate(196,203)"/>
    <path d="M0 0 C2.79724672 2.01052108 3.15065585 4.18168077 4 7.4375 C4.99 7.1075 5.98 6.7775 7 6.4375 C6.835 7.2625 6.67 8.0875 6.5 8.9375 C6.11129836 11.65841148 6.01239166 13.8025183 6.125 16.5 C5.98663545 20.85848338 5.08686387 23.35063613 2 26.4375 C-0.67058851 26.57865161 -3.32432238 26.47997107 -6 26.4375 C-5.38125 26.64375 -4.7625 26.85 -4.125 27.0625 C-1.15346355 28.98525888 -0.86975341 31.10344527 0 34.4375 C-1.65 34.4375 -3.3 34.4375 -5 34.4375 C-5.04125 35.035625 -5.0825 35.63375 -5.125 36.25 C-6 38.4375 -6 38.4375 -8.4375 40.1875 C-12.94732998 41.76989649 -17.26287771 42.26914625 -22 41.4375 C-23.80078125 39.9140625 -23.80078125 39.9140625 -25 38.4375 C-23.02 37.9425 -23.02 37.9425 -21 37.4375 C-20.93941406 36.72464844 -20.87882812 36.01179688 -20.81640625 35.27734375 C-20.35191899 29.96789712 -19.81924749 24.704091 -19 19.4375 C-19.639375 19.293125 -20.27875 19.14875 -20.9375 19 C-23 18.4375 -23 18.4375 -24 17.4375 C-24.125 14.9375 -24.125 14.9375 -24 12.4375 C-22.03177114 10.46927114 -18.65191291 10.77501619 -16 10.4375 C-15.87625 9.53 -15.7525 8.6225 -15.625 7.6875 C-13.41270554 3.26291109 -10.83910725 2.75852968 -6.3125 1.19921875 C-5.549375 0.94785156 -4.78625 0.69648437 -4 0.4375 C-2 -0.5625 -2 -0.5625 0 0 Z " fill="#DC9373" transform="translate(132,112.5625)"/>
    <path d="M0 0 C-0.32613281 0.47824219 -0.65226562 0.95648438 -0.98828125 1.44921875 C-5.97656209 9.88073769 -6.61872174 19.11051515 -7.69042969 28.66333008 C-8.02063505 31.15575557 -8.372458 33.5634615 -9 36 C-13.10104876 38.69131325 -18.25868746 38.68569247 -23 38 C-26.95685511 35.94829735 -29.72787681 33.8325756 -32 30 C-32.3984375 26.72265625 -32.3984375 26.72265625 -32.375 23.0625 C-32.38273437 21.85722656 -32.39046875 20.65195313 -32.3984375 19.41015625 C-31.97457678 15.78240714 -31.28815152 13.83064754 -29 11 C-26.33333333 11 -23.66666667 11 -21 11 C-21 11.66 -21 12.32 -21 13 C-20.0409375 13.2165625 -20.0409375 13.2165625 -19.0625 13.4375 C-17 14 -17 14 -16 15 C-15.67 14.34 -15.34 13.68 -15 13 C-15.66 13 -16.32 13 -17 13 C-16.67 10.69 -16.34 8.38 -16 6 C-16.66 6 -17.32 6 -18 6 C-18 7.65 -18 9.3 -18 11 C-19.98 9.35 -21.96 7.7 -24 6 C-17.14046003 -1.69099936 -9.56589431 -4.09733698 0 0 Z " fill="#FAD67C" transform="translate(141,167)"/>
    <path d="M0 0 C2 0.6875 2 0.6875 4 2.6875 C3.18595703 3.01621094 3.18595703 3.01621094 2.35546875 3.3515625 C-1.36756525 5.00177217 -3.59795043 6.12211779 -6 9.5 C-7.11610689 13.0575907 -7.22243956 15.98017394 -7 19.6875 C-6.01 19.6875 -5.02 19.6875 -4 19.6875 C-4 20.6775 -4 21.6675 -4 22.6875 C-5.64432706 23.04859542 -7.2905208 23.40120076 -8.9375 23.75 C-10.31228516 24.04583984 -10.31228516 24.04583984 -11.71484375 24.34765625 C-12.46894531 24.45980469 -13.22304687 24.57195312 -14 24.6875 C-14.33 24.3575 -14.66 24.0275 -15 23.6875 C-16.65644366 23.56459282 -18.31798993 23.50966092 -19.97875977 23.48217773 C-21.57029625 23.4522599 -21.57029625 23.4522599 -23.19398499 23.42173767 C-24.348134 23.40502518 -25.50228302 23.38831268 -26.69140625 23.37109375 C-27.86638168 23.35031265 -29.04135712 23.32953156 -30.25193787 23.30812073 C-34.02206324 23.24249876 -37.79226082 23.1836817 -41.5625 23.125 C-44.11133573 23.0818268 -46.66016403 23.03821292 -49.20898438 22.99414062 C-55.47257892 22.88680455 -61.73624601 22.7850621 -68 22.6875 C-68 22.3575 -68 22.0275 -68 21.6875 C-62.39 20.6975 -56.78 19.7075 -51 18.6875 C-56.28 19.0175 -61.56 19.3475 -67 19.6875 C-66 17.6875 -66 17.6875 -63 16.625 C-61.515 16.1609375 -61.515 16.1609375 -60 15.6875 C-59.67 15.3575 -59.34 15.0275 -59 14.6875 C-57.15400312 14.29295777 -55.29774178 13.94573134 -53.4375 13.625 C-52.42558594 13.44839844 -51.41367188 13.27179688 -50.37109375 13.08984375 C-49.58863281 12.95707031 -48.80617188 12.82429688 -48 12.6875 C-48 12.0275 -48 11.3675 -48 10.6875 C-36.27653828 7.94777797 -25.05386004 6.02002028 -13 5.6875 C-13.2165625 6.36296875 -13.433125 7.0384375 -13.65625 7.734375 C-13.9346875 8.62640625 -14.213125 9.5184375 -14.5 10.4375 C-14.7784375 11.31921875 -15.056875 12.2009375 -15.34375 13.109375 C-16.16445285 15.89017529 -16.16445285 15.89017529 -16 19.6875 C-15.72027344 18.81867188 -15.44054687 17.94984375 -15.15234375 17.0546875 C-13.01021648 10.89693258 -8.69050907 -1.35789204 0 0 Z " fill="#EF4C6D" transform="translate(143,270.3125)"/>
    <path d="M0 0 C11.55 0 23.1 0 35 0 C35 4.62 35 9.24 35 14 C33.48541567 15.51458433 32.10420234 15.17836881 29.9921875 15.24609375 C28.75855469 15.29540039 28.75855469 15.29540039 27.5 15.34570312 C25.77354256 15.40607775 24.04697722 15.46345484 22.3203125 15.51757812 C18.43723457 15.67736316 15.14283263 15.95912457 11.3828125 17.03515625 C8 18 8 18 0 18 C0 12.06 0 6.12 0 0 Z " fill="#F9F7F8" transform="translate(187,102)"/>
    <path d="M0 0 C0 6.6 0 13.2 0 20 C1.65 20 3.3 20 5 20 C5 28.58 5 37.16 5 46 C-0.28 46 -5.56 46 -11 46 C-11.40178571 37.42857143 -11.40178571 37.42857143 -9.5 33.0625 C-5.59078808 23.5766398 -8.71760933 11.8698282 -10 2 C-3.375 0 -3.375 0 0 0 Z " fill="#667AD8" transform="translate(324,107)"/>
    <path d="M0 0 C2.60913418 9.62118228 1.92260611 14.2564475 -3 23 C-4.27178364 25.0600457 -5.59686675 27.02521988 -7 29 C-11.88036541 27.32508169 -15.99152948 24.63208039 -20.3125 21.875 C-21.05306641 21.40707031 -21.79363281 20.93914062 -22.55664062 20.45703125 C-24.37341968 19.30835804 -26.18703037 18.15467631 -28 17 C-26.74361009 13.6476699 -25.31266112 10.69597385 -23.375 7.6875 C-22.92898438 6.99011719 -22.48296875 6.29273437 -22.0234375 5.57421875 C-21.51683594 4.79498047 -21.51683594 4.79498047 -21 4 C-20.21625 4.268125 -19.4325 4.53625 -18.625 4.8125 C-13.94331584 5.05465608 -11.44712403 3.43774805 -7.46484375 1.12890625 C-4.75694996 -0.11131769 -2.94231841 -0.21503575 0 0 Z " fill="#D48C6A" transform="translate(302,95)"/>
    <path d="M0 0 C4.15426219 0.61092091 7.4375513 1.75410843 11 4 C13.16597147 7.14415213 14.0206706 9.0491525 13.9375 12.875 C12.02831916 19.23893614 9.8025276 24.33524573 4 28 C3.34 28 2.68 28 2 28 C2 27.34 2 26.68 2 26 C1.0925 26.103125 0.185 26.20625 -0.75 26.3125 C-4 26 -4 26 -6.3125 24.0625 C-8.26045331 20.52732547 -8.55529731 17.86924703 -8.7265625 13.890625 C-8.81679688 13.26671875 -8.90703125 12.6428125 -9 12 C-9.66 11.67 -10.32 11.34 -11 11 C-11 7 -11 7 -9 5 C-9 4.01 -9 3.02 -9 2 C-4.545 1.505 -4.545 1.505 0 1 C0 0.67 0 0.34 0 0 Z " fill="#B97F65" transform="translate(266,43)"/>
    <path d="M0 0 C0 1.65 0 3.3 0 5 C0.84820312 4.83628906 1.69640625 4.67257813 2.5703125 4.50390625 C6.0645531 3.99051555 9.34627574 3.90149261 12.875 3.9375 C14.02742188 3.94652344 15.17984375 3.95554688 16.3671875 3.96484375 C17.23601562 3.97644531 18.10484375 3.98804688 19 4 C16.65571827 10.58631533 12.79115907 17.80269091 7 22 C2.09725518 23.5565654 -3.0114944 22.91402296 -8 22 C-9 21 -9 21 -9.11352539 19.14233398 C-9.10828857 18.35157471 -9.10305176 17.56081543 -9.09765625 16.74609375 C-9.09443359 15.89208984 -9.09121094 15.03808594 -9.08789062 14.15820312 C-9.07951172 13.26037109 -9.07113281 12.36253906 -9.0625 11.4375 C-9.05798828 10.53580078 -9.05347656 9.63410156 -9.04882812 8.70507812 C-9.03700225 6.46998686 -9.0205222 4.23502563 -9 2 C-5.62902617 0.50178941 -3.79557881 0 0 0 Z " fill="#FCFCFD" transform="translate(197,131)"/>
    <path d="M0 0 C-2.74875682 0.67218507 -5.49880726 1.33792435 -8.25 2 C-9.02730469 2.19078125 -9.80460937 2.3815625 -10.60546875 2.578125 C-11.73662109 2.84882812 -11.73662109 2.84882812 -12.890625 3.125 C-13.58188477 3.29257813 -14.27314453 3.46015625 -14.98535156 3.6328125 C-17 4 -17 4 -21 4 C-20.77183594 4.74765625 -20.54367187 5.4953125 -20.30859375 6.265625 C-20.02113281 7.25046875 -19.73367188 8.2353125 -19.4375 9.25 C-19.14746094 10.22453125 -18.85742188 11.1990625 -18.55859375 12.203125 C-18 15 -18 15 -19 19 C-19.99 14.38 -20.98 9.76 -22 5 C-23.32 5 -24.64 5 -26 5 C-25.7834375 5.89203125 -25.566875 6.7840625 -25.34375 7.703125 C-25.0653125 8.87359375 -24.786875 10.0440625 -24.5 11.25 C-24.2215625 12.41015625 -23.943125 13.5703125 -23.65625 14.765625 C-23 18 -23 18 -23 22 C-20.36 21.34 -17.72 20.68 -15 20 C-14.49168133 22.83206118 -13.99318495 25.66529734 -13.5 28.5 C-13.35691406 29.29148437 -13.21382813 30.08296875 -13.06640625 30.8984375 C-12.18613543 36.0123918 -11.8571869 40.81112402 -12 46 C-19.19315625 44.83760783 -26.06974434 43.25496388 -33 41 C-29 33 -29 33 -25 25 C-25.66 25 -26.32 25 -27 25 C-26.91621094 24.40574219 -26.83242188 23.81148437 -26.74609375 23.19921875 C-26.64425781 22.37035156 -26.54242188 21.54148437 -26.4375 20.6875 C-26.33308594 19.88699219 -26.22867187 19.08648437 -26.12109375 18.26171875 C-25.94311157 13.46768249 -26.49441443 8.76431362 -27 4 C-23.2532344 3.13120421 -19.5021914 2.28252757 -15.75 1.4375 C-14.68652344 1.19064453 -13.62304688 0.94378906 -12.52734375 0.68945312 C-10.99013672 0.34624023 -10.99013672 0.34624023 -9.421875 -0.00390625 C-8.47924805 -0.21861572 -7.53662109 -0.4333252 -6.56542969 -0.65454102 C-4.00668461 -0.99909986 -2.42256081 -0.819982 0 0 Z " fill="#D64967" transform="translate(329,88)"/>
    <path d="M0 0 C9.0719352 -0.09471858 17.98185679 -0.14516104 27 1 C27 4.63 27 8.26 27 12 C25.02 12.61875 25.02 12.61875 23 13.25 C19.71405259 14.32464947 16.77743901 15.58606405 13.75 17.25 C10.99873763 18.70266653 10.21980846 19.01831737 7 18.75 C6.34 18.5025 5.68 18.255 5 18 C6 15 6 15 7 14 C4.36 14.33 1.72 14.66 -1 15 C-3 12 -3 12 -3 8 C-0.36 7.67 2.28 7.34 5 7 C5 6.01 5 5.02 5 4 C3.35 4 1.7 4 0 4 C0 2.68 0 1.36 0 0 Z " fill="#D28A6A" transform="translate(170,119)"/>
    <path d="M0 0 C2.57146057 2.57146057 2.80117997 4.6050417 3.625 8.125 C3.88539062 9.22070312 4.14578125 10.31640625 4.4140625 11.4453125 C4.70410156 12.70988281 4.70410156 12.70988281 5 14 C5 11.69 5 9.38 5 7 C7.02336363 10.56111998 7.97729582 14.30228181 8.9375 18.25 C9.19418457 19.28833984 9.19418457 19.28833984 9.45605469 20.34765625 C11.26891368 27.84215713 12.66730739 35.40769058 14 43 C12.26969709 42.71515154 10.54079286 42.42180062 8.8125 42.125 C7.84957031 41.96257812 6.88664062 41.80015625 5.89453125 41.6328125 C3.08497417 41.01857735 0.65006215 40.09752021 -2 39 C-1.88206288 33.60636763 -1.75783819 28.21293153 -1.62768555 22.81958008 C-1.5842718 20.98335753 -1.54260161 19.14709292 -1.50268555 17.31079102 C-1.44513831 14.67711689 -1.38140002 12.04365579 -1.31640625 9.41015625 C-1.29969376 8.58411392 -1.28298126 7.75807159 -1.26576233 6.90699768 C-1.11387171 1.11387171 -1.11387171 1.11387171 0 0 Z " fill="#E8D8BA" transform="translate(90,188)"/>
    <path d="M0 0 C5.61 0 11.22 0 17 0 C13.76198612 5.61255739 10.51183922 11.19974494 7.0859375 16.69921875 C6.58682861 17.50311035 6.08771973 18.30700195 5.57348633 19.13525391 C4.57371167 20.74129037 3.56841315 22.34390256 2.55737305 23.94287109 C2.0962915 24.6848877 1.63520996 25.4269043 1.16015625 26.19140625 C0.74386963 26.85342041 0.32758301 27.51543457 -0.10131836 28.19750977 C-1.22309755 30.11178449 -1.22309755 30.11178449 -1 33 C-3.64 33 -6.28 33 -9 33 C-9 28.38 -9 23.76 -9 19 C-5.04 18.505 -5.04 18.505 -1 18 C-0.505 9.09 -0.505 9.09 0 0 Z " fill="#6879D4" transform="translate(231,83)"/>
    <path d="M0 0 C1.71462162 3.36469878 2.34892835 6.56489692 3.14794922 10.25268555 C-0.81036811 10.28209019 -4.76865675 10.29961883 -8.72705078 10.31518555 C-9.83564453 10.32356445 -10.94423828 10.33194336 -12.08642578 10.34057617 C-18.6869378 10.35998944 -25.32689258 10.37689955 -31.85205078 9.25268555 C-32.85205078 8.25268555 -32.85205078 8.25268555 -32.98486328 6.44018555 C-32.98228516 5.71831055 -32.97970703 4.99643555 -32.97705078 4.25268555 C-32.97962891 3.53081055 -32.98220703 2.80893555 -32.98486328 2.06518555 C-32.85205078 0.25268555 -32.85205078 0.25268555 -31.85205078 -0.74731445 C-27.6189525 -1.15083317 -23.37209955 -1.30212936 -19.12402344 -1.46972656 C-17.6958789 -1.52965212 -16.26808455 -1.59862529 -14.84082031 -1.67675781 C-12.78502553 -1.78927701 -10.72966748 -1.87481974 -8.67236328 -1.9543457 C-7.43760254 -2.01082275 -6.2028418 -2.0672998 -4.93066406 -2.12548828 C-1.85205078 -1.74731445 -1.85205078 -1.74731445 0 0 Z " fill="#F390A3" transform="translate(214.85205078125,283.747314453125)"/>
    <path d="M0 0 C1.09248047 0.4640625 1.09248047 0.4640625 2.20703125 0.9375 C5.44542918 2.16944998 8.61750003 2.79858824 12.01171875 3.4375 C14 4 14 4 16 6 C14.35 6.66 12.7 7.32 11 8 C11 8.66 11 9.32 11 10 C11.68707031 9.82082031 12.37414062 9.64164063 13.08203125 9.45703125 C14.43361328 9.13798828 14.43361328 9.13798828 15.8125 8.8125 C17.15248047 8.48185547 17.15248047 8.48185547 18.51953125 8.14453125 C21 8 21 8 22.84375 9.21875 C24.73626179 12.13424114 23.67554352 14.74510848 23 18 C18.44567394 20.3506199 14.01617484 20.72544328 9 20 C5.04150089 17.94744491 2.28995336 15.82322647 0 12 C-0.29296875 8.984375 -0.29296875 8.984375 -0.1875 5.75 C-0.14689453 4.13351563 -0.14689453 4.13351563 -0.10546875 2.484375 C-0.07066406 1.66453125 -0.03585938 0.8446875 0 0 Z " fill="#FCD877" transform="translate(109,185)"/>
    <path d="M0 0 C1.23173915 0.74576763 2.46025204 1.49686447 3.6875 2.25 C4.71423828 2.87648438 4.71423828 2.87648438 5.76171875 3.515625 C8 5 8 5 10.03125 7.125 C14.68270619 10.0627618 19.41823824 9.67750534 24.8125 9.75 C26.42415039 9.79447266 26.42415039 9.79447266 28.06835938 9.83984375 C30.71231427 9.91034921 33.3553973 9.96314143 36 10 C36 10.33 36 10.66 36 11 C26.1 11.33 16.2 11.66 6 12 C6 14.97 6 17.94 6 21 C2.37 21 -1.26 21 -5 21 C-5 19.35 -5 17.7 -5 16 C-15.56 16 -26.12 16 -37 16 C-37 15.67 -37 15.34 -37 15 C-26.44 15 -15.88 15 -5 15 C-5.33 13.02 -5.66 11.04 -6 9 C-4.35 9 -2.7 9 -1 9 C-1.020625 7.700625 -1.04125 6.40125 -1.0625 5.0625 C-1.08399454 3.70834367 -1.07148199 2.35243917 -1 1 C-0.67 0.67 -0.34 0.34 0 0 Z " fill="#C18367" transform="translate(177,272)"/>
    <path d="M0 0 C2.453125 0.40625 2.453125 0.40625 5.578125 2.40625 C8.09525391 6.43365626 7.84968644 8.72682498 7.453125 13.40625 C4.62900735 14.34762255 2.92394468 14.52350382 0.00390625 14.50390625 C-0.84365234 14.50068359 -1.69121094 14.49746094 -2.56445312 14.49414062 C-3.44552734 14.48576172 -4.32660156 14.47738281 -5.234375 14.46875 C-6.12705078 14.46423828 -7.01972656 14.45972656 -7.93945312 14.45507812 C-10.14199487 14.44329983 -12.34440099 14.42685164 -14.546875 14.40625 C-12.85238037 4.97462895 -9.87358238 -0.34644149 0 0 Z " fill="#919FDF" transform="translate(241.546875,139.59375)"/>
    <path d="M0 0 C9.40249226 0.74035372 15.54076603 4.40232006 23 10 C21 11 21 11 19.1875 11.4375 C16.96922302 11.95798273 16.96922302 11.95798273 14.8125 12.875 C11.68005125 14.1279795 8.50421308 15.12810337 5.28125 16.12109375 C2.64721863 17.13591748 0.38210101 18.49441151 -2 20 C-1.85834107 17.60385425 -1.71181159 15.20817103 -1.5625 12.8125 C-1.52318359 12.13896484 -1.48386719 11.46542969 -1.44335938 10.77148438 C-1.21072435 7.10300898 -0.82792989 3.58305794 0 0 Z " fill="#DB607E" transform="translate(133,255)"/>
    <path d="M0 0 C2.0625 2.625 2.0625 2.625 2.0625 5.625 C-8.4975 5.625 -19.0575 5.625 -29.9375 5.625 C-28.9375 0.625 -28.9375 0.625 -27.33203125 -1.140625 C-24.06367872 -2.82545273 -21.28728683 -2.93360411 -17.625 -3.125 C-15.71267578 -3.24101562 -15.71267578 -3.24101562 -13.76171875 -3.359375 C-4.20331974 -3.39842872 -4.20331974 -3.39842872 0 0 Z " fill="#F2E8D7" transform="translate(169.9375,280.375)"/>
    <path d="M0 0 C2.66666667 0 5.33333333 0 8 0 C8 0.66 8 1.32 8 2 C8.5775 2.103125 9.155 2.20625 9.75 2.3125 C12.32049158 3.09792798 13.93657284 4.30504197 16 6 C16.66 4.35 17.32 2.7 18 1 C18.66 1 19.32 1 20 1 C19.98839844 1.78246094 19.97679687 2.56492188 19.96484375 3.37109375 C19.95582031 4.38300781 19.94679687 5.39492187 19.9375 6.4375 C19.92589844 7.44683594 19.91429687 8.45617187 19.90234375 9.49609375 C19.71387324 11.94021067 19.71387324 11.94021067 21 13 C21.04063832 14.66617115 21.042721 16.33388095 21 18 C20.38125 17.649375 19.7625 17.29875 19.125 16.9375 C18.42375 16.628125 17.7225 16.31875 17 16 C16.34 16.33 15.68 16.66 15 17 C12.6670134 17.04022391 10.33293334 17.04320247 8 17 C8 16.34 8 15.68 8 15 C9.32 14.34 10.64 13.68 12 13 C9.14696759 11.0979784 7.75259668 10.60715138 4.5 10 C1.24740332 9.39284862 -0.14696759 8.9020216 -3 7 C-1.125 1.125 -1.125 1.125 0 0 Z " fill="#F3D586" transform="translate(112,178)"/>
    <path d="M0 0 C3.18295929 0.43902887 5.92557574 1.10496526 9 2 C9.63905273 2.18159668 10.27810547 2.36319336 10.93652344 2.55029297 C15.32878315 3.79871534 19.70367534 5.09708559 24.07226562 6.42578125 C25.68090795 6.9049513 27.30034597 7.34768609 28.921875 7.78125 C32.59405638 8.81636153 35.37897943 9.91608782 38.125 12.625 C40.3122857 16.56211426 40.43647787 18.60551948 39.6328125 22.9453125 C38.68488022 26.02316671 37.75742978 27.30312014 35 29 C32.2955028 29.59985024 29.78183334 29.81454444 27 30 C27 29.34 27 28.68 27 28 C28.98 27.01 30.96 26.02 33 25 C33.1352403 23.39815374 33.23210847 21.79303374 33.3125 20.1875 C33.39951172 18.84751953 33.39951172 18.84751953 33.48828125 17.48046875 C33.25775614 14.82805713 33.25775614 14.82805713 30.92382812 13.48632812 C27.61607361 11.80483101 24.28867673 10.72771462 20.73046875 9.73828125 C20.04946609 9.54276169 19.36846344 9.34724213 18.66682434 9.14579773 C16.5089157 8.52791812 14.34832982 7.92007535 12.1875 7.3125 C10.71660807 6.89323993 9.24590272 6.47332472 7.77539062 6.05273438 C4.18572088 5.02756827 0.59358191 4.01137876 -3 3 C-1.7265625 1.46875 -1.7265625 1.46875 0 0 Z " fill="#DCD2BF" transform="translate(193,264)"/>
    <path d="M0 0 C0.33 0 0.66 0 1 0 C1.32216418 9.80587218 0.10441232 19.40024182 -1 29.125 C-1.19320764 30.8619237 -1.38592015 32.59890255 -1.578125 34.3359375 C-2.0463745 38.55794947 -2.52132807 42.7791575 -3 47 C-5.64 46.34 -8.28 45.68 -11 45 C-10.33469842 35.03405392 -8.40319211 26.62727143 -4.54443359 17.40332031 C-2.17594324 11.6893843 -0.66651534 6.1754687 0 0 Z " fill="#BC3D57" transform="translate(140,192)"/>
    <path d="M0 0 C1.32 0.33 2.64 0.66 4 1 C4.65234375 2.7421875 4.65234375 2.7421875 5 5 C4.00390625 7.0703125 4.00390625 7.0703125 2.5625 9.125 C0.52846028 11.81832907 0.52846028 11.81832907 0 15 C1.56511396 16.21331746 1.56511396 16.21331746 3.61328125 17.34765625 C4.36673828 17.78787109 5.12019531 18.22808594 5.89648438 18.68164062 C6.69376953 19.13732422 7.49105469 19.59300781 8.3125 20.0625 C9.09818359 20.52205078 9.88386719 20.98160156 10.69335938 21.45507812 C13.79011553 23.24987893 16.59381663 24.86460554 20 26 C20.39832031 25.278125 20.79664063 24.55625 21.20703125 23.8125 C21.73683594 22.884375 22.26664062 21.95625 22.8125 21 C23.33457031 20.071875 23.85664063 19.14375 24.39453125 18.1875 C24.92433594 17.465625 25.45414062 16.74375 26 16 C26.99 16 27.98 16 29 16 C28.53218278 20.99005032 26.11080256 25.15195521 23 29 C20 30 20 30 17.64453125 29.13671875 C8.76732628 24.59403869 0.3864898 19.3852333 -8 14 C-6.6744419 10.37723685 -5.05653045 7.36494652 -2.875 4.1875 C-2.33617187 3.39730469 -1.79734375 2.60710937 -1.2421875 1.79296875 C-0.83226562 1.20128906 -0.42234375 0.60960938 0 0 Z " fill="#F6EEE1" transform="translate(275,97)"/>
    <path d="M0 0 C3.34430737 0.72366315 5.34262343 1.81715496 8 4 C7.50628906 4.48210937 7.01257813 4.96421875 6.50390625 5.4609375 C5.54291016 6.40839844 5.54291016 6.40839844 4.5625 7.375 C3.92441406 8.00148438 3.28632813 8.62796875 2.62890625 9.2734375 C0.92117824 10.91723061 0.92117824 10.91723061 0 13 C0.99 13.33 1.98 13.66 3 14 C2.67 14.99 2.34 15.98 2 17 C2.99 16.67 3.98 16.34 5 16 C5.78375 16.185625 6.5675 16.37125 7.375 16.5625 C12.80166966 17.46694494 16.71260038 13.99120904 21 11 C20.34097701 14.57040303 18.83770842 17.17732255 16.9375 20.25 C16.38964844 21.14203125 15.84179688 22.0340625 15.27734375 22.953125 C14.85582031 23.62859375 14.43429687 24.3040625 14 25 C9.11963459 23.32508169 5.00847052 20.63208039 0.6875 17.875 C-0.05306641 17.40707031 -0.79363281 16.93914062 -1.55664062 16.45703125 C-3.37341968 15.30835804 -5.18703037 14.15467631 -7 13 C-5.74361009 9.6476699 -4.31266112 6.69597385 -2.375 3.6875 C-1.92898438 2.99011719 -1.48296875 2.29273437 -1.0234375 1.57421875 C-0.51683594 0.79498047 -0.51683594 0.79498047 0 0 Z " fill="#D3E043" transform="translate(281,99)"/>
    <path d="M0 0 C5.44500063 0.65921425 10.15864119 1.92976569 15.21827698 4.02137756 C16.29787941 4.45207802 16.29787941 4.45207802 17.39929199 4.89147949 C19.66491418 5.79808289 21.92395124 6.71992278 24.18312073 7.64247131 C25.73153705 8.26524096 27.28036225 8.88699501 28.8296051 9.50770569 C32.59809852 11.02011257 36.36077361 12.54620301 40.12062073 14.07997131 C40.12062073 14.40997131 40.12062073 14.73997131 40.12062073 15.07997131 C30.55062073 15.07997131 20.98062073 15.07997131 11.12062073 15.07997131 C10.46062073 11.77997131 9.80062073 8.47997131 9.12062073 5.07997131 C5.95821491 2.97170077 4.61404604 2.74179666 0.93312073 2.45497131 C0.03206604 2.38020569 -0.86898865 2.30544006 -1.79734802 2.22840881 C-2.48441833 2.17942444 -3.17148865 2.13044006 -3.87937927 2.07997131 C-1.87937927 0.07997131 -1.87937927 0.07997131 0 0 Z " fill="#5D6EC0" transform="translate(237.87937927246094,137.92002868652344)"/>
    <path d="M0 0 C8.35178073 0.52337826 16.6808105 1.07999551 25 2 C25 4.64 25 7.28 25 10 C16.42 9.34 7.84 8.68 -1 8 C-0.67 5.36 -0.34 2.72 0 0 Z " fill="#ECE4D5" transform="translate(63,212)"/>
    <path d="M0 0 C3.1918362 1.5959181 3.64590889 4.75390453 4.90234375 7.96875 C5.88550101 10.34198878 5.88550101 10.34198878 9 11 C11.00812926 10.01642648 13.00854609 9.01691264 15 8 C15.66 8.33 16.32 8.66 17 9 C14.69 10.32 12.38 11.64 10 13 C10.99 16.3 11.98 19.6 13 23 C11.37829621 24.00533667 9.75252763 25.00411907 8.125 26 C7.22007812 26.556875 6.31515625 27.11375 5.3828125 27.6875 C3 29 3 29 1 29 C0.71216559 25.29013428 0.54748043 21.70001295 1 18 C3.5 15.3125 3.5 15.3125 6 14 C4.02 14.66 2.04 15.32 0 16 C0 10.72 0 5.44 0 0 Z " fill="#E6D6B9" transform="translate(171,179)"/>
    <path d="M0 0 C1 3 1 3 -0.1875 5.875 C-3.69383282 11.92040141 -6.38558522 14.41058193 -12.76171875 17.05078125 C-19.17143073 19.76903607 -23.74804654 23.86976475 -27 30 C-28.00759068 33.6417206 -28.59973933 37.24583092 -29 41 C-31.82604444 38.17395556 -31.36679702 36.19273109 -31.4375 32.25 C-31.47746094 31.03828125 -31.51742187 29.8265625 -31.55859375 28.578125 C-30.87332029 24.18854118 -29.36059267 21.76686041 -26 19 C-22.1698754 16.63936163 -18.10492127 14.78659104 -14.03710938 12.87695312 C-7.84981546 9.82977201 -3.1434398 6.28687961 0 0 Z " fill="#7688D9" transform="translate(99,139)"/>
    <path d="M0 0 C0.33 0 0.66 0 1 0 C1.02470049 5.78409513 1.04286023 11.56815962 1.05493164 17.35229492 C1.0599635 19.32039932 1.06678958 21.28849997 1.07543945 23.2565918 C1.08755517 26.08383101 1.09323976 28.91102084 1.09765625 31.73828125 C1.10281754 32.61962234 1.10797882 33.50096344 1.11329651 34.40901184 C1.11340981 35.6399482 1.11340981 35.6399482 1.11352539 36.89575195 C1.115746 37.61745071 1.11796661 38.33914948 1.12025452 39.0827179 C1 41 1 41 0 44 C-6.6 44 -13.2 44 -20 44 C-20 42.02 -20 40.04 -20 38 C-17.41633755 38.14120016 -14.83317115 38.28778333 -12.25 38.4375 C-11.52039063 38.47681641 -10.79078125 38.51613281 -10.0390625 38.55664062 C-6.5727027 38.76147098 -3.34666974 39.0852002 0 40 C0 37.36 0 34.72 0 32 C-0.54785156 32.02320313 -1.09570312 32.04640625 -1.66015625 32.0703125 C-9.58535134 32.25072345 -17.17815332 31.16806244 -25 30 C-25 29.67 -25 29.34 -25 29 C-16.34678404 28.68212676 -8.74385321 29.75087811 0 31 C0 20.77 0 10.54 0 0 Z " fill="#23211F" transform="translate(88,182)"/>
    <path d="M0 0 C0 6.6 0 13.2 0 20 C-2.31 20 -4.62 20 -7 20 C-9.14468649 17.85531351 -8.7395788 13.41555106 -9.0625 10.4375 C-9.15337891 9.63119141 -9.24425781 8.82488281 -9.33789062 7.99414062 C-9.56247449 5.99652623 -9.78173236 3.9983144 -10 2 C-3.375 0 -3.375 0 0 0 Z " fill="#7181D7" transform="translate(324,107)"/>
    <path d="M0 0 C10.56 0 21.12 0 32 0 C32 1.65 32 3.3 32 5 C21.44 5 10.88 5 0 5 C0 3.35 0 1.7 0 0 Z " fill="#F2E5D3" transform="translate(140,288)"/>
    <path d="M0 0 C4.13405862 0.6079498 7.38204235 1.90962447 11 4 C13 7 13 7 13 11 C8.75519536 11.33292585 6.64457375 11.43885872 3.0625 9 C2.381875 8.34 1.70125 7.68 1 7 C0.319375 7.33 -0.36125 7.66 -1.0625 8 C-4.50840238 9.17307315 -7.38397422 9.14180493 -11 9 C-11 7 -11 7 -9 5 C-9 4.01 -9 3.02 -9 2 C-4.545 1.505 -4.545 1.505 0 1 C0 0.67 0 0.34 0 0 Z " fill="#090808" transform="translate(266,43)"/>
    <path d="M0 0 C2 0.6875 2 0.6875 4 2.6875 C3.45730469 2.90664063 2.91460937 3.12578125 2.35546875 3.3515625 C-1.36756525 5.00177217 -3.59795043 6.12211779 -6 9.5 C-7.11610689 13.0575907 -7.22243956 15.98017394 -7 19.6875 C-6.01 19.6875 -5.02 19.6875 -4 19.6875 C-4 20.6775 -4 21.6675 -4 22.6875 C-6.97 23.0175 -9.94 23.3475 -13 23.6875 C-15.00575552 19.07426231 -15.27825072 16.41027942 -13.5625 11.625 C-11.40916681 6.80388542 -6.11865172 -0.95603933 0 0 Z " fill="#99604E" transform="translate(143,270.3125)"/>
    <path d="M0 0 C2.40672398 2.40672398 2.79132175 4.11378549 3.6875 7.375 C3.95949219 8.33148438 4.23148437 9.28796875 4.51171875 10.2734375 C4.9947433 12.97064661 4.9004538 14.44972144 4 17 C3.67 16.34 3.34 15.68 3 15 C2.62488281 15.6496875 2.24976563 16.299375 1.86328125 16.96875 C1.35152344 17.8040625 0.83976563 18.639375 0.3125 19.5 C-0.18636719 20.3353125 -0.68523437 21.170625 -1.19921875 22.03125 C-3 24 -3 24 -5.70703125 24.28125 C-6.84205078 24.14203125 -6.84205078 24.14203125 -8 24 C-9.13643966 20.59068103 -8.86747764 19.99664544 -7.5625 16.8125 C-7.27503906 16.09707031 -6.98757812 15.38164063 -6.69140625 14.64453125 C-6.34916016 13.83048828 -6.34916016 13.83048828 -6 13 C-5.34 13 -4.68 13 -4 13 C-3.8453125 11.7315625 -3.8453125 11.7315625 -3.6875 10.4375 C-2.9171146 6.58557299 -1.63725486 3.55924969 0 0 Z " fill="#DD4767" transform="translate(255,93)"/>
    <path d="M0 0 C1.74627478 2.61941217 2.38722388 4.03824877 3 7 C4.65 7 6.3 7 8 7 C6.82191948 10.3529984 5.80593388 12.7552529 3 15 C-0.52994613 16.17664871 -3.29455413 16.19850603 -7 16 C-7.99 15.34 -8.98 14.68 -10 14 C-10 13.34 -10 12.68 -10 12 C-9.01 11.67 -8.02 11.34 -7 11 C-6.30341637 9.34561387 -5.63903117 7.67745682 -5 6 C-3.5 4.1875 -3.5 4.1875 -2 3 C-1.34 3 -0.68 3 0 3 C0 2.01 0 1.02 0 0 Z " fill="#E49677" transform="translate(275,64)"/>
    <path d="M0 0 C0.99 0 1.98 0 3 0 C2.85786703 1.89611434 2.71113093 3.79188394 2.5625 5.6875 C2.48128906 6.74324219 2.40007812 7.79898438 2.31640625 8.88671875 C2 12 2 12 1 17 C-2.3 17.66 -5.6 18.32 -9 19 C-7.01457981 12.16133044 -4.50311872 5.61717153 0 0 Z " fill="#7586D8" transform="translate(110,133)"/>
    <path d="M0 0 C3.08603789 0.10286793 5.76424114 0.40117967 8.75 1.125 C8.09 4.095 7.43 7.065 6.75 10.125 C5.10425434 10.15188151 3.45838587 10.17134123 1.8125 10.1875 C0.89597656 10.19910156 -0.02054688 10.21070313 -0.96484375 10.22265625 C-3.25 10.125 -3.25 10.125 -4.25 9.125 C-4.3828125 7.3125 -4.3828125 7.3125 -4.375 5.125 C-4.37757813 4.403125 -4.38015625 3.68125 -4.3828125 2.9375 C-4.14499761 -0.30797385 -3.32997022 0.12807578 0 0 Z " fill="#F2E6D4" transform="translate(186.25,282.875)"/>
    <path d="M0 0 C0.66 0 1.32 0 2 0 C3.00109515 3.31070838 3.10356134 6.30084769 3.0625 9.75 C3.05347656 10.73484375 3.04445312 11.7196875 3.03515625 12.734375 C3.02355469 13.48203125 3.01195312 14.2296875 3 15 C-2.26371362 15.50130606 -4.9090934 14.31168629 -9 11 C-9 9 -9 9 -6.6875 6.4375 C-4 4 -4 4 -1 3 C-0.67 2.01 -0.34 1.02 0 0 Z " fill="#F16B8B" transform="translate(173,266)"/>
    <path d="M0 0 C-3.01388587 2.00925725 -4.43170541 2.4159673 -7.91113281 2.96142578 C-8.90937073 3.12144073 -9.90760864 3.28145569 -10.93609619 3.44631958 C-12.0142157 3.61098724 -13.09233521 3.77565491 -14.203125 3.9453125 C-15.31427673 4.12005096 -16.42542847 4.29478943 -17.57025146 4.474823 C-19.92339039 4.84309285 -22.27710977 5.20766975 -24.63134766 5.56884766 C-28.22325647 6.12088978 -31.81283875 6.68646768 -35.40234375 7.25390625 C-37.68997765 7.61018827 -39.9777344 7.96568264 -42.265625 8.3203125 C-43.87065887 8.57338669 -43.87065887 8.57338669 -45.50811768 8.83157349 C-50.7360908 9.62654583 -55.71160062 10.2006717 -61 10 C-60.34 9.01 -59.68 8.02 -59 7 C-59.66 6.01 -60.32 5.02 -61 4 C-59.88625 4.4640625 -59.88625 4.4640625 -58.75 4.9375 C-54.62640189 6.53070836 -51.81569527 7.17529556 -47.41845703 6.47094727 C-46.51717072 6.33072647 -45.6158844 6.19050568 -44.68728638 6.04603577 C-43.72056 5.88775803 -42.75383362 5.72948029 -41.7578125 5.56640625 C-40.75668427 5.40961899 -39.75555603 5.25283173 -38.72409058 5.09129333 C-35.52316403 4.58914902 -32.32402586 4.0766034 -29.125 3.5625 C-25.93295859 3.05311121 -22.74060041 2.54606484 -19.54733276 2.04441833 C-17.56099865 1.73203624 -15.57537984 1.41506189 -13.59060669 1.09291077 C-9.01094458 0.36945719 -4.65487521 -0.19447853 0 0 Z " fill="#592733" transform="translate(127,254)"/>
    <path d="M0 0 C0.33 1.32 0.66 2.64 1 4 C-6.59 6.64 -14.18 9.28 -22 12 C-19.48667679 6.97335357 -16.89154257 5.80698932 -12.125 3.1875 C-11.40441406 2.76791016 -10.68382812 2.34832031 -9.94140625 1.91601562 C-8.89146484 1.32916992 -8.89146484 1.32916992 -7.8203125 0.73046875 C-7.18367676 0.37364014 -6.54704102 0.01681152 -5.89111328 -0.35083008 C-3.55900436 -1.15138232 -2.29542462 -0.79261197 0 0 Z " fill="#110C0A" transform="translate(194,199)"/>
    <path d="M0 0 C2.4932534 0.99730136 3.77467439 1.65074531 5.25 3.9375 C6 6 6 6 6 9 C6.99 9.33 7.98 9.66 9 10 C7.9375 11.5 7.9375 11.5 6 13 C2.3125 13.1875 2.3125 13.1875 -1 13 C-1 12.34 -1 11.68 -1 11 C0.32 10.34 1.64 9.68 3 9 C-0.4037522 6.73083187 -2.98210689 6.32979145 -6.94140625 5.66015625 C-9 5 -9 5 -11 2 C-9.02 2 -7.04 2 -5 2 C-5.33 2.66 -5.66 3.32 -6 4 C-4.02 4 -2.04 4 0 4 C0 2.68 0 1.36 0 0 Z " fill="#CAC5C5" transform="translate(121,182)"/>
    <path d="M0 0 C0.33 0.99 0.66 1.98 1 3 C1.66 3 2.32 3 3 3 C3.99 6.63 4.98 10.26 6 14 C0.06 12.515 0.06 12.515 -6 11 C-5.10830166 7.43320663 -4.5329766 6.04396879 -2.4375 3.25 C-1.98246094 2.63640625 -1.52742188 2.0228125 -1.05859375 1.390625 C-0.70925781 0.93171875 -0.35992187 0.4728125 0 0 Z " fill="#6A70C1" transform="translate(258,107)"/>
    <path d="M0 0 C4.62 0 9.24 0 14 0 C13.34 2.64 12.68 5.28 12 8 C11.34 8 10.68 8 10 8 C10 8.66 10 9.32 10 10 C7.69 10.33 5.38 10.66 3 11 C3.45822468 7.53058454 3.89131683 4.32604951 5 1 C3.35 1 1.7 1 0 1 C0 0.67 0 0.34 0 0 Z " fill="#F1C2BD" transform="translate(190,283)"/>
    <path d="M0 0 C0.66 0 1.32 0 2 0 C2 0.66 2 1.32 2 2 C6.62 2.66 11.24 3.32 16 4 C15.67 4.66 15.34 5.32 15 6 C13.906875 5.95875 12.81375 5.9175 11.6875 5.875 C7.16744935 5.85888574 2.9317602 6.6540379 -1.484375 7.5625 C-4 8 -4 8 -8 8 C-8 6.68 -8 5.36 -8 4 C-5.36 3.67 -2.72 3.34 0 3 C0 2.01 0 1.02 0 0 Z " fill="#AA7252" transform="translate(175,123)"/>
    <path d="M0 0 C3.1918362 1.5959181 3.64590889 4.75390453 4.90234375 7.96875 C5.88550101 10.34198878 5.88550101 10.34198878 9 11 C11.00812926 10.01642648 13.00854609 9.01691264 15 8 C15.66 8.33 16.32 8.66 17 9 C11.49005326 12.47366207 6.28663241 14.27763496 0 16 C0 10.72 0 5.44 0 0 Z " fill="#CDBCA5" transform="translate(171,179)"/>
    <path d="M0 0 C10.37055838 1.92047377 10.37055838 1.92047377 14 5 C15.3125 8.1875 15.3125 8.1875 16 11 C13.36 11.33 10.72 11.66 8 12 C7.979375 11.29875 7.95875 10.5975 7.9375 9.875 C6.70031447 6.08096439 4.57991385 4.64186433 1.49609375 2.234375 C1.00238281 1.82703125 0.50867188 1.4196875 0 1 C0 0.67 0 0.34 0 0 Z " fill="#7580C8" transform="translate(116,136)"/>
    <path d="M0 0 C3.33773709 3.64116773 3.97864902 7.28607242 5 12 C1.7 12 -1.6 12 -5 12 C-4.11264751 9.33794254 -3.0859614 6.8687528 -1.9375 4.3125 C-1.57527344 3.50425781 -1.21304688 2.69601562 -0.83984375 1.86328125 C-0.56269531 1.24839844 -0.28554687 0.63351562 0 0 Z " fill="#F285A2" transform="translate(213,282)"/>
    <path d="M0 0 C1.60101563 0.46986328 1.60101563 0.46986328 3.234375 0.94921875 C4.85085937 1.40748047 4.85085937 1.40748047 6.5 1.875 C7.31984375 2.12636719 8.1396875 2.37773437 8.984375 2.63671875 C7.994375 4.12171875 7.994375 4.12171875 6.984375 5.63671875 C1.42338674 6.29095266 -2.13881426 5.02536074 -7.015625 2.63671875 C-4.49798055 0.16184982 -3.58547522 -0.43192901 0 0 Z " fill="#EBE1D0" transform="translate(190.015625,267.36328125)"/>
    <path d="M0 0 C1.32 0.66 2.64 1.32 4 2 C2.68 2.33 1.36 2.66 0 3 C0.33 3.66 0.66 4.32 1 5 C-1.4 11.4 -1.4 11.4 -4 14 C-4.33 13.34 -4.66 12.68 -5 12 C-5.33 12.66 -5.66 13.32 -6 14 C-6.66 14 -7.32 14 -8 14 C-6.6744419 10.37723685 -5.05653045 7.36494652 -2.875 4.1875 C-2.33617187 3.39730469 -1.79734375 2.60710937 -1.2421875 1.79296875 C-0.83226562 1.20128906 -0.42234375 0.60960938 0 0 Z " fill="#F2E5D7" transform="translate(275,97)"/>
    <path d="M0 0 C1.65 1.32 3.3 2.64 5 4 C5.33 2.68 5.66 1.36 6 0 C6.66 0 7.32 0 8 0 C7.67 2.31 7.34 4.62 7 7 C7.66 7 8.32 7 9 7 C8.67 7.99 8.34 8.98 8 10 C5.5 8.625 5.5 8.625 3 7 C3 6.34 3 5.68 3 5 C1.02 5.66 -0.96 6.32 -3 7 C-3 6.01 -3 5.02 -3 4 C-2.01 3.67 -1.02 3.34 0 3 C-0.66 2.34 -1.32 1.68 -2 1 C-1.34 0.67 -0.68 0.34 0 0 Z " fill="#C0C1D4" transform="translate(117,173)"/>
    <path d="M0 0 C2.31 0 4.62 0 7 0 C8.25664978 2.90600261 9 4.79604584 9 8 C8.01 8 7.02 8 6 8 C5.54625 7.030625 5.0925 6.06125 4.625 5.0625 C3.34213779 1.92920418 3.34213779 1.92920418 1 1 C0.67 2.32 0.34 3.64 0 5 C0 3.35 0 1.7 0 0 Z " fill="#8E9ADF" transform="translate(126,139)"/>
    <path d="M0 0 C6.21448092 0.68803182 11.49736305 2.56315943 17.1875 5.1171875 C14.1875 6.1171875 14.1875 6.1171875 11.1875 5.1171875 C10.8575 5.7771875 10.5275 6.4371875 10.1875 7.1171875 C9.73375 6.4778125 9.28 5.8384375 8.8125 5.1796875 C4.93736164 2.13493593 0.9952353 2.30068885 -3.8125 2.1171875 C-1.8125 0.1171875 -1.8125 0.1171875 0 0 Z " fill="#495279" transform="translate(237.8125,137.8828125)"/>
    <path d="M0 0 C0.66 0 1.32 0 2 0 C2.28571429 7.42857143 2.28571429 7.42857143 0 11 C-1.32 9.35 -2.64 7.7 -4 6 C-3.67 5.34 -3.34 4.68 -3 4 C-2.67 4.33 -2.34 4.66 -2 5 C-1.34 3.35 -0.68 1.7 0 0 Z " fill="#CAC5C4" transform="translate(130,179)"/>
    <path d="M0 0 C0.99 0 1.98 0 3 0 C2.46884894 4.51478398 0.63379708 7.34666857 -2 11 C-2.33 10.34 -2.66 9.68 -3 9 C-2.67 8.34 -2.34 7.68 -2 7 C-2.66 6.67 -3.32 6.34 -4 6 C-2.1875 3 -2.1875 3 0 0 Z " fill="#F4E5D4" transform="translate(301,113)"/>
    <path d="M0 0 C1.66645757 3.08549348 2.73761596 6.12675325 3.6875 9.5 C3.95949219 10.4384375 4.23148437 11.376875 4.51171875 12.34375 C5.00140894 15.00766466 4.88693174 16.47611372 4 19 C2 18 2 18 1.3671875 16.25 C0.15581755 10.71230879 -0.17993924 5.66808602 0 0 Z " fill="#EDDFC7" transform="translate(95,195)"/>
    <path d="M0 0 C1.98 0 3.96 0 6 0 C5.34 2.97 4.68 5.94 4 9 C1.3144406 6.3144406 0.93950026 3.62378672 0 0 Z " fill="#EFE1D2" transform="translate(206,283)"/>
    <path d="M0 0 C1.98 0 3.96 0 6 0 C5.34 2.64 4.68 5.28 4 8 C3.34 8 2.68 8 2 8 C0.74335022 5.09399739 0 3.20395416 0 0 Z " fill="#EFE1D3" transform="translate(198,283)"/>
    <path d="M0 0 C6.86214442 5.0940919 6.86214442 5.0940919 7.4375 8.875 C7.293125 9.57625 7.14875 10.2775 7 11 C1.21538462 6.81538462 1.21538462 6.81538462 0.125 2.6875 C0.08375 1.800625 0.0425 0.91375 0 0 Z " fill="#E6D098" transform="translate(126,185)"/>
    <path d="M0 0 C-6.04305356 2.0601319 -10.56677796 3.12371581 -17 3 C-16.34 2.01 -15.68 1.02 -15 0 C-12.989293 -0.06486152 -10.97485888 -0.11875543 -8.96484375 -0.03515625 C-5.30860064 0.03026361 -3.62868538 -1.20956179 0 0 Z " fill="#F05677" transform="translate(109,287)"/>
    <path d="M0 0 C1.79068573 2.6860286 2.66055791 4.6626589 3.625 7.6875 C3.88539063 8.49574219 4.14578125 9.30398437 4.4140625 10.13671875 C4.60742188 10.75160156 4.80078125 11.36648437 5 12 C2 11 2 11 0.25 8.25 C-1.06883276 4.82103483 -1.10867421 3.42681118 0 0 Z " fill="#EFE3CD" transform="translate(174,178)"/>
    <path d="M0 0 C2.5654594 2.5654594 2.54046087 4.47686668 3 8 C1.35 8 -0.3 8 -2 8 C-1.125 2.25 -1.125 2.25 0 0 Z " fill="#F3E5D6" transform="translate(213,285)"/>
    <path d="M0 0 C0.33 0 0.66 0 1 0 C1.19294408 4.82360189 0.75747614 8.49646738 -1 13 C-1.66 13 -2.32 13 -3 13 C-3.38281159 7.76824163 -2.21854707 4.62197306 0 0 Z " fill="#F05E7C" transform="translate(130,224)"/>
    <path d="M0 0 C2.35953094 2.35953094 2.49141413 3.77895617 3 7 C1.02 7 -0.96 7 -3 7 C-2.01 4.69 -1.02 2.38 0 0 Z " fill="#F3E6D6" transform="translate(205,286)"/>
    <path d="M0 0 C2.31 0.66 4.62 1.32 7 2 C7.33 3.65 7.66 5.3 8 7 C4.46399535 5.08864614 2.21027154 3.37357234 0 0 Z " fill="#160E0B" transform="translate(116,136)"/>
    <path d="M0 0 C0.66 0 1.32 0 2 0 C1.67 1.98 1.34 3.96 1 6 C0.01 6.33 -0.98 6.66 -2 7 C-3.32 5.68 -4.64 4.36 -6 3 C-4.68 3 -3.36 3 -2 3 C-1.34 2.01 -0.68 1.02 0 0 Z " fill="#FBF7F0" transform="translate(297,120)"/>
    <path d="M0 0 C1.32 0.66 2.64 1.32 4 2 C2.68 2.33 1.36 2.66 0 3 C0.33 3.66 0.66 4.32 1 5 C0.01 6.485 0.01 6.485 -1 8 C-1.66 8 -2.32 8 -3 8 C-2.25 2.25 -2.25 2.25 0 0 Z " fill="#F6EAE1" transform="translate(275,97)"/>
    <path d="M0 0 C2.475 0.99 2.475 0.99 5 2 C4.67 2.99 4.34 3.98 4 5 C2.35 4.67 0.7 4.34 -1 4 C-0.67 2.68 -0.34 1.36 0 0 Z " fill="#151414" transform="translate(129,118)"/>
    <path d="M0 0 C0.99 0.33 1.98 0.66 3 1 C2.67 2.65 2.34 4.3 2 6 C0.68 5.34 -0.64 4.68 -2 4 C-1.34 2.68 -0.68 1.36 0 0 Z " fill="#E57198" transform="translate(194,25)"/>
    <path d="M0 0 C1.0625 1.875 1.0625 1.875 2 4 C1.67 4.66 1.34 5.32 1 6 C0.67 5.67 0.34 5.34 0 5 C-1.84891946 4.76636119 -3.70488031 4.58696365 -5.5625 4.4375 C-6.57441406 4.35371094 -7.58632812 4.26992188 -8.62890625 4.18359375 C-9.80259766 4.09271484 -9.80259766 4.09271484 -11 4 C-11 3.67 -11 3.34 -11 3 C-10.37351562 2.95101563 -9.74703125 2.90203125 -9.1015625 2.8515625 C-8.28429687 2.77679688 -7.46703125 2.70203125 -6.625 2.625 C-5.81289062 2.55539062 -5.00078125 2.48578125 -4.1640625 2.4140625 C-1.79665809 2.17107412 -1.79665809 2.17107412 0 0 Z " fill="#AB4953" transform="translate(128,289)"/>
    <path d="M0 0 C2.31 0 4.62 0 7 0 C6.01 1.98 5.02 3.96 4 6 C3.34 6 2.68 6 2 6 C2 5.01 2 4.02 2 3 C1.34 2.67 0.68 2.34 0 2 C0 1.34 0 0.68 0 0 Z " fill="#E4A470" transform="translate(281,110)"/>
    <path d="M0 0 C1.32 0.66 2.64 1.32 4 2 C3.67 2.99 3.34 3.98 3 5 C1.68 5 0.36 5 -1 5 C-0.67 3.35 -0.34 1.7 0 0 Z " fill="#BBD037" transform="translate(211,25)"/>
    <path d="M0 0 C1.65 0 3.3 0 5 0 C5 1.32 5 2.64 5 4 C3.35 4 1.7 4 0 4 C0 2.68 0 1.36 0 0 Z " fill="#F3C549" transform="translate(201,26)"/>
    <path d="M0 0 C1.22589844 0.01353516 1.22589844 0.01353516 2.4765625 0.02734375 C3.41628906 0.04474609 3.41628906 0.04474609 4.375 0.0625 C1.15872163 2.20668558 -0.81590105 2.73832137 -4.625 3.0625 C-5.285 2.4025 -5.945 1.7425 -6.625 1.0625 C-4.21954362 -0.14022819 -2.67503047 -0.03821472 0 0 Z " fill="#F16284" transform="translate(93.625,281.9375)"/>
    <path d="M0 0 C-0.53625 0.2475 -1.0725 0.495 -1.625 0.75 C-4.18746595 2.04181958 -4.18746595 2.04181958 -7.125 4.125 C-10 6 -10 6 -12 6 C-11 3 -11 3 -8.25 1.3125 C-5.14979295 0.06049331 -3.28328088 -0.28970125 0 0 Z " fill="#DD8971" transform="translate(145,269)"/>
    <path d="M0 0 C0.33 0 0.66 0 1 0 C1 1.98 1 3.96 1 6 C-0.98 6 -2.96 6 -5 6 C-3.35830472 3.97945196 -1.69088222 1.97956942 0 0 Z " fill="#687BD8" transform="translate(311,147)"/>
    <path d="M0 0 C0.99 0.99 1.98 1.98 3 3 C1.02 3.66 -0.96 4.32 -3 5 C-3 4.34 -3 3.68 -3 3 C-3.66 2.67 -4.32 2.34 -5 2 C-3.35 1.34 -1.7 0.68 0 0 Z " fill="#926049" transform="translate(267,49)"/>
</svg>
